<?xml version="1.0" encoding="UTF-8"?>
<svg width="64px" height="48px" viewBox="0 0 64 48" version="1.1" xmlns="http://www.w3.org/2000/svg" xmlns:xlink="http://www.w3.org/1999/xlink">
    <!-- Generator: Sketch 52.3 (67297) - http://www.bohemiancoding.com/sketch -->
    <title>Car</title>
    <desc>Created with Sketch.</desc>
    <g id="Page-1" stroke="none" stroke-width="1" fill="none" fill-rule="evenodd">
        <g id="Car" fill="#006AC3" fill-rule="nonzero">
            <path d="M45.32445,34.14895 C45.47095,24.39795 50.93145,17.63245 56.45245,14.23195 C56.49945,14.40795 56.58495,14.57545 56.71745,14.71395 C56.71745,14.71395 57.72995,15.77995 57.76945,15.83445 C59.97845,17.87445 61.41645,21.66895 61.41345,24.41995 L61.40345,32.58845 C61.40295,33.12445 61.34345,33.64495 61.24245,34.14895 L45.32445,34.14895 Z M59.75945,37.39745 C59.66145,37.52245 59.59145,37.66745 59.54895,37.82145 L4.35995,37.82145 C4.31745,37.66745 4.24795,37.52245 4.14945,37.39745 C3.58795,36.68395 3.15345,35.85245 2.87095,34.94745 L61.03845,34.94745 C60.75545,35.85245 60.32095,36.68395 59.75945,37.39745 Z M59.54445,42.19295 L59.54445,42.63995 C59.54445,44.12995 58.42695,45.33795 57.04795,45.33795 L55.04945,45.33795 L55.04945,38.77045 L59.54445,38.77045 L59.54445,42.19295 Z M50.55045,45.33795 L54.25095,45.33795 L54.25095,38.76995 L50.55045,38.76995 L50.55045,45.33795 Z M49.75095,45.33795 L47.75345,45.33795 C46.37495,45.33795 45.25745,44.12995 45.25745,42.63995 L45.25745,38.77045 L49.75095,38.77045 L49.75095,45.33795 Z M20.40495,45.35245 C20.87345,44.56195 21.14795,43.63495 21.14795,42.63995 L21.14795,40.61495 L42.76095,40.61495 L42.76095,42.63995 C42.76095,43.63495 43.03595,44.56195 43.50395,45.35245 L20.40495,45.35245 Z M18.65195,42.63995 C18.65195,44.12995 17.53445,45.33795 16.15545,45.33795 L14.12595,45.33795 L14.12595,38.77045 L18.65195,38.77045 L18.65195,42.63995 Z M8.82695,45.33795 L6.86095,45.33795 C5.48195,45.33795 4.36445,44.12995 4.36445,42.63995 L4.36445,42.19245 L4.36445,38.77045 L8.82695,38.77045 L8.82695,45.33795 Z M2.50545,32.58845 L2.49595,24.41995 C2.49295,21.66895 3.93095,17.87445 6.13995,15.83445 C6.17945,15.77995 7.19145,14.71395 7.19145,14.71395 C7.32445,14.57545 7.40995,14.40795 7.45695,14.23245 C12.97795,17.63245 18.43845,24.39795 18.58495,34.14895 L2.66695,34.14895 C2.56545,33.64495 2.50595,33.12445 2.50545,32.58845 Z M9.17295,7.44995 L9.17945,7.44995 C10.12945,7.44995 10.70445,7.76695 11.05145,8.21695 C11.11495,8.29895 11.18695,8.36795 11.26095,8.43245 C12.78295,11.66195 14.85545,14.75145 18.44645,14.75145 L45.46245,14.75145 C49.05445,14.75145 51.12645,11.66195 52.64795,8.43245 C52.72245,8.36795 52.79395,8.29895 52.85795,8.21695 C53.20495,7.76695 53.77945,7.44995 54.72995,7.44995 L54.73595,7.44995 C56.77145,7.45295 59.14995,8.11195 59.14745,9.97045 C59.14695,11.13995 58.14445,12.28845 56.93195,12.98195 C56.85445,13.02595 56.78545,13.08045 56.72495,13.14145 C50.78595,16.51045 44.67845,23.66295 44.52545,34.14895 L19.38345,34.14895 C19.23045,23.66245 13.12395,16.51045 7.18495,13.14145 C7.12395,13.08095 7.05545,13.02645 6.97745,12.98195 C5.76545,12.28845 4.76245,11.13995 4.76145,9.97045 C4.75895,8.11195 7.13795,7.45295 9.17295,7.44995 Z M13.34145,8.28395 L16.89645,4.56845 C17.98295,3.41195 20.03195,2.49845 21.56845,2.49645 L42.34045,2.49645 C43.87745,2.49845 45.92595,3.41195 47.01345,4.56845 L50.56745,8.28395 C50.85345,8.58245 51.22195,8.74245 51.59345,8.77145 C50.21545,11.50995 48.37645,13.95245 45.46245,13.95245 L36.99145,13.95245 L43.39145,8.72645 C43.64545,8.51895 43.69695,8.15145 43.51045,7.88195 C43.33795,7.63295 42.99995,7.56495 42.74445,7.72795 L32.51895,13.95245 L18.44645,13.95245 C15.53195,13.95245 13.69345,11.50995 12.31545,8.77145 C12.68745,8.74245 13.05595,8.58245 13.34145,8.28395 Z M62.75145,45.35245 L61.29745,45.35245 C61.76595,44.56195 62.04095,43.63495 62.04095,42.63995 L62.04095,38.51145 C63.24045,36.80345 63.89745,34.72195 63.89945,32.59095 L63.90945,24.42295 C63.91295,21.34345 62.44095,16.86395 59.61795,14.14695 C59.61045,14.13795 59.60295,14.12845 59.59545,14.11945 C60.88495,12.94995 61.64245,11.45745 61.64445,9.97295 C61.64745,6.97695 58.87295,4.95945 54.73945,4.95395 C53.36695,4.95345 52.39395,5.36445 51.71395,5.87145 L48.81695,2.84295 C47.27695,1.20545 44.54845,0.00295 42.34395,-5e-05 L21.56495,-5e-05 C19.36045,0.00295 16.63195,1.20545 15.07745,2.85845 L12.19495,5.87145 C11.51645,5.36445 10.54495,4.95395 9.17945,4.95395 C5.03645,4.95945 2.26145,6.97695 2.26495,9.97295 C2.26695,11.45745 3.02395,12.94995 4.31395,14.11945 C4.30645,14.12845 4.29845,14.13795 4.29145,14.14695 C1.46795,16.86395 -0.00355,21.34345 -4.99999997e-05,24.42295 L0.00945,32.59145 C0.01195,34.72195 0.66845,36.80395 1.86845,38.51195 L1.86845,42.63995 C1.86845,43.63495 2.14345,44.56195 2.61145,45.35245 L1.31045,45.35245 C0.62095,45.35245 0.06245,45.91095 0.06245,46.60045 C0.06245,47.28995 0.62095,47.84845 1.31045,47.84845 L62.75145,47.84845 C63.44095,47.84845 63.99995,47.28995 63.99995,46.60045 C63.99995,45.91095 63.44095,45.35245 62.75145,45.35245 Z" id="Fill-3"></path>
            <path d="M22.3025,28.1973 L41.6725,28.1973 C42.363,28.1973 42.9225,27.6378 42.9225,26.9473 C42.9225,26.2568 42.363,25.6973 41.6725,25.6973 L22.3025,25.6973 C21.612,25.6973 21.0525,26.2568 21.0525,26.9473 C21.0525,27.6378 21.612,28.1973 22.3025,28.1973" id="Fill-1"></path>
            <path d="M53.78685,24.45365 C53.56635,24.45365 53.38685,24.63265 53.38685,24.85365 C53.38685,25.07415 53.56635,25.25365 53.78685,25.25365 C54.72085,25.25365 55.48035,26.01365 55.48035,26.94715 C55.48035,27.16815 55.65935,27.34715 55.88035,27.34715 C56.10135,27.34715 56.28035,27.16815 56.28035,26.94715 C56.28035,25.57215 55.16185,24.45365 53.78685,24.45365" id="Fill-6"></path>
            <path d="M53.78685,30.7344 C51.69835,30.7344 49.99985,29.0359 49.99985,26.9474 C49.99985,24.8589 51.69835,23.1594 53.78685,23.1594 C55.87535,23.1594 57.57435,24.8589 57.57435,26.9474 C57.57435,29.0359 55.87535,30.7344 53.78685,30.7344 M53.78685,22.3599 C51.25735,22.3599 49.19985,24.4174 49.19985,26.9474 C49.19985,29.4764 51.25735,31.5349 53.78685,31.5349 C56.31685,31.5349 58.37435,29.4764 58.37435,26.9474 C58.37435,24.4174 56.31685,22.3599 53.78685,22.3599" id="Fill-8"></path>
            <path d="M10.12205,30.7344 C8.03355,30.7344 6.33505,29.0359 6.33505,26.9474 C6.33505,24.8589 8.03355,23.1594 10.12205,23.1594 C12.21005,23.1594 13.90955,24.8589 13.90955,26.9474 C13.90955,29.0359 12.21005,30.7344 10.12205,30.7344 M10.12205,22.3599 C7.59255,22.3599 5.53505,24.4174 5.53505,26.9474 C5.53505,29.4764 7.59255,31.5349 10.12205,31.5349 C12.65155,31.5349 14.70955,29.4764 14.70955,26.9474 C14.70955,24.4174 12.65155,22.3599 10.12205,22.3599" id="Fill-10"></path>
            <path d="M10.12205,24.45365 C9.90105,24.45365 9.72205,24.63265 9.72205,24.85365 C9.72205,25.07415 9.90105,25.25365 10.12205,25.25365 C11.05605,25.25365 11.81555,26.01365 11.81555,26.94715 C11.81555,27.16815 11.99505,27.34715 12.21555,27.34715 C12.43705,27.34715 12.61555,27.16815 12.61555,26.94715 C12.61555,25.57215 11.49705,24.45365 10.12205,24.45365" id="Fill-12"></path>
        </g>
    </g>
</svg>