<?xml version="1.0" encoding="UTF-8"?>
<svg width="40px" height="40px" viewBox="0 0 40 40" version="1.1" xmlns="http://www.w3.org/2000/svg" xmlns:xlink="http://www.w3.org/1999/xlink">
    <!-- Generator: Sketch 52.3 (67297) - http://www.bohemiancoding.com/sketch -->
    <title>Convert_Points</title>
    <desc>Created with Sketch.</desc>
    <g id="FINAL" stroke="none" stroke-width="1" fill="none" fill-rule="evenodd">
        <g id="ConvertPoints_Colour_128" fill="#006AC3">
            <g id="Shape">
                <path d="M39.9996847,5.1983 C39.9996847,5.14476562 39.9943259,5.09154687 39.9836081,5.03895625 C39.9785647,5.01345 39.9687925,4.98983125 39.9615425,4.96558437 C39.9536619,4.93913125 39.9476725,4.91205 39.9369547,4.88654375 C39.9237153,4.8547375 39.9060625,4.82608125 39.8890403,4.79648125 C39.8795834,4.77979062 39.8723334,4.76215625 39.8616156,4.74578125 C39.8313541,4.70075 39.7966791,4.65886563 39.7582216,4.62107812 C39.7582216,4.6207625 39.7579062,4.62045 39.7575909,4.62013437 L35.3305541,0.236975 C35.0096537,-0.081078125 34.4920525,-0.078559375 34.1739891,0.2420125 C33.8559259,0.562584375 33.8581325,1.079975 34.1790328,1.39739687 L37.1948019,4.383325 L27.0259194,4.383325 C26.5742003,4.383325 26.2079075,4.74893125 26.2079075,5.2001875 C26.2079075,5.6517625 26.5742003,6.01736562 27.0259194,6.01736562 L37.2474447,6.01736562 L34.1802937,9.05399375 C33.8593934,9.37173125 33.8568716,9.88880625 34.1749347,10.2093781 C34.3347544,10.3706094 34.5453256,10.451225 34.7558966,10.451225 C34.9639459,10.451225 35.1719953,10.3725 35.3314997,10.2144156 L39.7585369,5.83157187 C39.9274981,5.66435938 40.0056741,5.44203437 39.9977934,5.22191562 C39.9977934,5.214675 40,5.20774687 40,5.2001875 C40,5.19955937 39.9996847,5.19892812 39.9996847,5.1983 Z M12.9743956,33.9317844 L2.80519812,33.9317844 L5.82065219,30.9461719 C6.14155219,30.6284344 6.14375906,30.1113594 5.82601094,29.7907875 C5.5076325,29.4699 4.99003094,29.4676938 4.66944594,29.78575 L0.242409063,34.1685938 C0.24209375,34.1689094 0.241778437,34.1692219 0.241463125,34.1695375 C0.203320937,34.2073281 0.168645938,34.2492094 0.138384375,34.2942406 C0.127666562,34.3106156 0.120416563,34.32825 0.110959688,34.3449406 C0.0939375,34.3745406 0.0762846875,34.4031969 0.0630453125,34.4350031 C0.0523275,34.4605094 0.046338125,34.4875906 0.0384575,34.5140438 C0.0312075,34.5382906 0.0214353125,34.5619094 0.016391875,34.5874156 C0.0056740625,34.6400062 0.0003153125,34.693225 0.0003153125,34.7467594 C0.0003153125,34.7473875 0,34.7480187 0,34.7486469 C0,34.7562062 0.00189125,34.7631344 0.0022065625,34.770375 C-0.0056740625,34.9904937 0.072501875,35.2128187 0.241463125,35.3800313 L4.66850031,39.7631906 C4.82800469,39.921275 5.03605406,40 5.24410344,40 C5.45467437,40 5.66493031,39.9193844 5.82506531,39.7581531 C6.14281312,39.4375813 6.14060656,38.9205063 5.81970625,38.6027687 L2.75255531,35.565825 L12.9743956,35.565825 C13.426115,35.565825 13.7924078,35.2002219 13.7924078,34.7486469 C13.7924078,34.2973906 13.426115,33.9317844 12.9743956,33.9317844 Z M24.3247459,16.2527156 L27.7648097,11.3279219 L30.5558225,16.2527156 L24.3247459,16.2527156 Z M19.5607322,30.2477156 L24.0552275,16.7757719 L30.46157,16.7757719 L19.5607322,30.2477156 Z M18.76321,30.9830156 L14.0937641,16.7757719 L23.5032666,16.7757719 L18.76321,30.9830156 Z M7.22498469,16.7757719 L13.5427487,16.7757719 L17.9344803,30.1387562 L7.22498469,16.7757719 Z M9.86153687,11.3666531 L13.2741759,16.2527156 L7.12978656,16.2527156 L9.86153687,11.3666531 Z M18.0312547,11.1682625 L13.760885,16.0354313 L10.3614856,11.1682625 L18.0312547,11.1682625 Z M18.8722781,11.1682625 L23.3324141,16.2527156 L14.2665081,16.2527156 L18.7275894,11.1682625 L18.8722781,11.1682625 Z M27.2377516,11.1682625 L23.8380369,16.0354313 L19.5682978,11.1682625 L27.2377516,11.1682625 Z M28.9891484,10.171275 C28.9670825,10.1319125 28.9415491,10.0944375 28.9128634,10.0594844 C28.5295484,9.58712813 28.0825578,9.52414688 27.8272244,9.53422188 L9.72031562,9.53422188 C9.6393025,9.53422188 9.55860437,9.54619063 9.48137406,9.56980625 C9.21217094,9.65199687 8.97984906,9.79244375 8.79071344,9.98705625 C8.74122281,10.0380719 8.6986675,10.0953844 8.66367719,10.1574188 L5.44837,15.908525 C5.0827075,16.5707688 5.36262844,17.0582437 5.51046938,17.2503344 L17.9193494,32.7345156 C17.9414153,32.7619125 17.9650572,32.7877375 17.9905906,32.8123 C18.2175534,33.0305281 18.4940069,33.1398 18.7739275,33.1398 C19.0529028,33.1398 19.3356606,33.0308437 19.5752328,32.8135594 C19.606125,32.7855313 19.6351256,32.7549844 19.6612894,32.7222344 L32.1653678,17.2689125 C32.2022491,17.2235688 32.2340869,17.1741281 32.2602506,17.1218531 C32.3822434,16.8790625 32.5316606,16.3811969 32.1751397,15.7932687 L28.9891484,10.171275 Z" fill-rule="nonzero"></path>
            </g>
        </g>
    </g>
</svg>