<?xml version="1.0" encoding="UTF-8"?>
<svg width="64px" height="64px" viewBox="0 0 64 64" version="1.1" xmlns="http://www.w3.org/2000/svg" xmlns:xlink="http://www.w3.org/1999/xlink">
    <!-- Generator: Sketch 52.3 (67297) - http://www.bohemiancoding.com/sketch -->
    <title>Cruises</title>
    <desc>Created with Sketch.</desc>
    <g id="Page-1" stroke="none" stroke-width="1" fill="none" fill-rule="evenodd">
        <g id="Cruises" transform="translate(-1.000000, 0.000000)" fill="#006AC3" fill-rule="nonzero">
            <path d="M63.5,61.23 C61.58,61.73 59.215,61.52 57.74,60.73 L56.49,60.08 C53.905,58.735 49.865,58.735 47.28,60.08 L46.03,60.73 C43.7851499,61.7241876 41.2248501,61.7241876 38.98,60.73 L37.73,60.08 C36.2549375,59.3763064 34.6336571,59.033541 33,59.08 C31.3679701,59.0337619 29.7483627,59.3765359 28.275,60.08 L27.025,60.73 C24.7801499,61.7241876 22.2198501,61.7241876 19.975,60.73 L18.725,60.08 C16.14,58.735 12.1,58.735 9.515,60.08 L8.265,60.73 C6.765,61.505 4.4,61.695 2.48,61.2 C2.16612412,61.1239217 1.83483228,61.1775742 1.56101193,61.3488295 C1.28719158,61.5200849 1.09396124,61.794484 1.025,62.11 C0.865065731,62.7640581 1.25194031,63.4272717 1.9,63.61 C2.83164686,63.845276 3.78910848,63.962859 4.75,63.96 C6.33872059,63.9898528 7.91236988,63.6473829 9.345,62.96 L10.595,62.31 C12.8398501,61.3158124 15.4001499,61.3158124 17.645,62.31 L18.895,62.96 C21.475,64.305 25.52,64.305 28.105,62.96 L29.355,62.31 C30.4970763,61.7889938 31.745731,61.5440588 33,61.595 L33.055,61.595 C34.3035017,61.5547522 35.5438523,61.8100178 36.675,62.34 L37.925,62.99 C40.505,64.335 44.55,64.335 47.135,62.99 L48.385,62.34 C50.6298501,61.3458124 53.1901499,61.3458124 55.435,62.34 L56.685,62.99 C58.685,64.03 61.6,64.295 64.095,63.66 C64.747097,63.4815961 65.1391762,62.8170551 64.98,62.16 C64.916225,61.8352607 64.7211699,61.5512757 64.4409577,61.3751964 C64.1607454,61.1991171 63.8202553,61.146577 63.5,61.23 Z" id="Shape"></path>
            <circle id="Oval" cx="46" cy="11.83" r="1.5"></circle>
            <circle id="Oval" cx="19" cy="11.83" r="1.5"></circle>
            <circle id="Oval" cx="25.75" cy="11.83" r="1.5"></circle>
            <circle id="Oval" cx="39.25" cy="11.83" r="1.5"></circle>
            <circle id="Oval" cx="32.5" cy="11.83" r="1.5"></circle>
            <path d="M26.87,21.9 C25.8094154,21.9040789 24.8559081,22.5471654 24.454736,23.5289584 C24.053564,24.5107513 24.2838721,25.6375586 25.0381136,26.3831966 C25.7923552,27.1288347 26.9217303,27.346201 27.8988565,26.9337923 C28.8759826,26.5213836 29.5080883,25.5605616 29.5,24.5 C29.4862695,23.058074 28.3119886,21.897188 26.87,21.9 Z M26.87,26.335 C25.8668019,26.3349659 25.0528019,25.5231532 25.0500686,24.5199588 C25.0473352,23.5167645 25.8568993,22.7005281 26.8600824,22.6950274 C27.8632654,22.6895266 28.6817319,23.496836 28.69,24.5 C28.6939944,24.9857484 28.5041695,25.4530462 28.162564,25.7984056 C27.8209584,26.1437651 27.355763,26.3386856 26.87,26.34 L26.87,26.335 Z" id="Shape"></path>
            <path d="M38.525,21.9 C37.4634956,21.9000309 36.5069075,22.5405591 36.1025811,23.5220436 C35.6982547,24.5035281 35.926101,25.6319886 36.6795683,26.3797043 C37.4330356,27.1274199 38.5632089,27.3466124 39.5415663,26.934777 C40.5199238,26.5229417 41.1531031,25.5614735 41.145,24.5 C41.1313064,23.0619717 39.9630911,21.902674 38.525,21.9 Z M38.525,26.335 C37.5218019,26.3349659 36.7078019,25.5231532 36.7050686,24.5199588 C36.7023352,23.5167645 37.5118993,22.7005281 38.5150824,22.6950274 C39.5182654,22.6895266 40.3367319,23.496836 40.345,24.5 C40.3489944,24.9857484 40.1591695,25.4530462 39.817564,25.7984056 C39.4759584,26.1437651 39.010763,26.3386856 38.525,26.34 L38.525,26.335 Z" id="Shape"></path>
            <path d="M1.915,57.23 C2.84664686,57.465276 3.80410848,57.582859 4.765,57.58 C6.35372059,57.6098528 7.92736988,57.2673829 9.36,56.58 L10.61,55.93 C12.8548501,54.9358124 15.4151499,54.9358124 17.66,55.93 L18.91,56.58 C21.49,57.925 25.535,57.925 28.12,56.58 L29.37,55.93 C30.5041813,55.3975433 31.7475718,55.1389318 33,55.175 L33.055,55.175 C34.3034046,55.1358838 35.5434946,55.3910958 36.675,55.92 L37.925,56.57 C40.505,57.915 44.55,57.915 47.135,56.57 L48.385,55.92 C50.6298501,54.9258124 53.1901499,54.9258124 55.435,55.92 L56.685,56.57 C58.685,57.61 61.6,57.875 64.095,57.24 C64.747097,57.0615961 65.1391762,56.3970551 64.98,55.74 C64.9121792,55.4235622 64.7194227,55.1479322 64.445467,54.9756508 C64.1715114,54.8033694 63.8395841,54.7490436 63.525,54.825 C61.605,55.325 59.24,55.115 57.765,54.325 L56.515,53.675 C55.3152001,53.0822447 54.006564,52.7418972 52.67,52.675 L59.5,29.59 C60.0346371,27.762682 59.1111809,25.8253614 57.355,25.09 L53.745,23.59 L53.745,8.5 C53.745,7.11928813 52.6257119,6 51.245,6 L42.105,6 L41.665,2.63 C41.4416678,1.10171783 40.1193312,-0.023766096 38.575,1.82076576e-14 L25.965,1.82076576e-14 C24.6806452,-0.019160589 23.580153,0.91465513 23.39,2.185 L22.89,5.99 L13.75,5.99 C12.3692881,5.99 11.25,7.10928813 11.25,8.49 L11.25,23.725 L8.025,25.075 C6.26881905,25.8103614 5.34536289,27.747682 5.88,29.575 L12.745,52.75 C11.6265836,52.8632977 10.5376194,53.1766078 9.53,53.675 L8.28,54.325 C6.78,55.095 4.415,55.29 2.495,54.795 C2.18112412,54.7189217 1.84983228,54.7725742 1.57601193,54.9438295 C1.30219158,55.1150849 1.10896124,55.389484 1.04,55.705 C0.86448047,56.3672241 1.25471018,57.0473387 1.915,57.23 Z M53.75,26.27 L56.395,27.375 C56.9809548,27.6195312 57.2890234,28.2658292 57.11,28.875 L54.785,36.715 L33.94,28 L33.94,18 L51.25,25.225 L53.75,26.27 Z M25.865,2.53 C25.8936655,2.50834803 25.9291497,2.49770277 25.965,2.5 L38.575,2.5 C38.8605436,2.48226469 39.1176636,2.67194334 39.185,2.95 L39.41,4.695 L25.585,4.695 L25.865,2.53 Z M25.415,6 L25.5,5.5 L39.5,5.5 L39.565,6 L39.785,7.7 L25.195,7.7 L25.415,6 Z M13.75,8.5 L51.25,8.5 L51.25,22.5 L34.14,15.355 C33.2118891,14.9688881 32.1681109,14.9688881 31.24,15.355 L13.74,22.675 L13.75,8.5 Z M8.275,28.88 C8.09597657,28.2708292 8.40404524,27.6245312 8.99,27.38 L11.25,26.435 L13.75,25.39 L31.44,18 L31.44,28.105 L10.63,36.815 L8.275,28.88 Z M11.555,39.945 L11.25,38.91 L10.855,37.585 L31.44,28.97 L31.44,40.78 C31.44,41.4703559 31.9996441,42.0299999 32.69,42.0299999 C33.3803559,42.0299999 33.94,41.4703559 33.94,40.78 L33.94,28.865 L54.555,37.5 L50,52.83 C49.0535314,52.9709016 48.1354361,53.2611818 47.28,53.69 L46.03,54.34 C43.7851499,55.3341876 41.2248501,55.3341876 38.98,54.34 L37.73,53.69 C36.2549994,52.9861238 34.6336744,52.643349 33,52.69 C31.368316,52.6475648 29.7495872,52.9901529 28.275,53.69 L27.025,54.34 C24.7801499,55.3341876 22.2198501,55.3341876 19.975,54.34 L18.725,53.69 C17.6637165,53.1666197 16.5139928,52.8461214 15.335,52.745 L11.555,39.945 Z" id="Shape"></path>
        </g>
    </g>
</svg>