<?xml version="1.0" encoding="UTF-8"?>
<svg width="40px" height="40px" viewBox="0 0 40 40" version="1.1" xmlns="http://www.w3.org/2000/svg" xmlns:xlink="http://www.w3.org/1999/xlink">
    <!-- Generator: Sketch 52.3 (67297) - http://www.bohemiancoding.com/sketch -->
    <title>Donate_to_Charity</title>
    <desc>Created with Sketch.</desc>
    <g id="FINAL" stroke="none" stroke-width="1" fill="none" fill-rule="evenodd">
        <g id="Charity_Colour_128" fill="#006AC3">
            <g id="Shape">
                <path d="M36.1235437,10.1978344 C36.1098031,10.0458688 35.9755313,9.93447188 35.8231437,9.94757812 C35.6707594,9.96130625 35.5586562,10.0957969 35.5723969,10.2477625 C35.6579563,11.1891906 34.736775,12.8314656 33.8243375,13.7732094 L31.4042844,16.22055 C31.2968656,16.3288281 31.2981156,16.5038844 31.4067813,16.6115406 C31.4604906,16.6645875 31.5307531,16.6914219 31.601325,16.6914219 C31.6725188,16.6914219 31.7440281,16.6639625 31.79805,16.6090438 L34.2199781,14.1595156 C35.2373375,13.1098062 36.2275281,11.3411562 36.1235437,10.1978344 Z M22.3579706,17.5938469 C22.0250963,17.3292344 21.2781587,16.5410188 20.9643325,16.1534625 C21.28659,15.5134656 21.7000288,15.2017344 22.2252581,15.2017344 C22.8444794,15.2017344 23.3481628,15.7053688 23.3481628,16.32415 C23.3481628,16.9463594 22.8388587,17.3835313 22.3579706,17.5938469 Z M22.2252581,14.7027813 C21.4586478,14.7027813 20.8597238,15.166475 20.4453484,16.0816938 C20.4085009,16.1631344 20.4178691,16.2579969 20.4703294,16.3307031 C20.7388772,16.7035906 21.8239978,17.8690687 22.1974666,18.0906156 C22.2364997,18.1140188 22.2805291,18.1255656 22.3251828,18.1255656 C22.3539112,18.1255656 22.3829519,18.1208844 22.4107434,18.1105875 C23.0736819,17.8687563 23.8474744,17.2555938 23.8474744,16.32415 C23.8474744,15.43015 23.1198972,14.7027813 22.2252581,14.7027813 Z M8.12150219,34.5133719 C8.46030969,34.5133719 8.7357275,34.7889031 8.7357275,35.1274687 C8.7357275,35.4660344 8.46030969,35.7415656 8.12150219,35.7415656 C7.782695,35.7415656 7.50665281,35.4660344 7.50665281,35.1274687 C7.50665281,34.7889031 7.782695,34.5133719 8.12150219,34.5133719 Z M8.12150219,36.2408344 C8.7357275,36.2408344 9.23535125,35.7412562 9.23535125,35.1274687 C9.23535125,34.5136844 8.7357275,34.0141031 8.12150219,34.0141031 C7.506965,34.0141031 7.00734125,34.5136844 7.00734125,35.1274687 C7.00734125,35.7412562 7.506965,36.2408344 8.12150219,36.2408344 Z M15.7254647,3.62810938 C14.3183991,3.53418437 12.9459947,4.01379375 11.8633725,4.9783125 C10.7195462,5.99744063 10.0222588,7.44344375 9.95043781,8.94592188 C9.94294344,9.0985125 10.0606672,9.22800937 10.2133647,9.23518438 C10.2180488,9.23549687 10.2224206,9.23580937 10.2267922,9.23580937 C10.3735566,9.23580937 10.4959644,9.12035313 10.5028344,8.97244687 C10.5680978,7.61725 11.1979359,6.31166875 12.2315328,5.39114375 C13.2023644,4.52616562 14.4301897,4.09773125 15.6886172,4.17979688 C15.8388166,4.19103125 15.9727784,4.07464062 15.9827709,3.9223625 C15.9930756,3.7700875 15.8778497,3.63840625 15.7254647,3.62810938 Z M35.2620063,15.9003969 L22.9647016,28.4273094 L19.6734294,25.062875 C19.6949759,24.6182156 19.7084031,24.2431438 19.7137116,23.8346813 L24.4223537,19.1281563 C25.2333059,18.3184062 25.6970191,17.3698 25.7635316,16.3846844 C25.8300441,15.4020656 25.4859281,14.4809188 24.7951981,13.7906813 C24.1044681,13.1001344 23.1826622,12.7543906 22.1999647,12.8224156 C21.2144569,12.8885688 20.2648591,13.3516406 19.4542197,14.1620125 L15.0840725,18.5277875 L13.2695012,18.5277875 C13.2557616,18.5115625 13.2448322,18.493775 13.2298434,18.4781719 L10.7083047,15.9019562 C8.51027219,13.642775 7.53163406,11.6803437 7.53506875,9.53817812 C7.53506875,5.13932813 11.1167472,1.56020938 15.5196819,1.56020938 C18.3122669,1.56020938 20.8550397,2.98187187 22.3220603,5.3624375 C22.3239338,5.36586875 22.3270566,5.36805313 22.3292425,5.37148438 L22.9856231,6.42337813 L23.6360709,5.38147188 C23.640755,5.37460625 23.6470003,5.3696125 23.6513719,5.36275 C25.1193291,2.98218125 27.6627266,1.56083125 30.455,1.56083125 C34.8569969,1.56083125 38.438675,5.13995 38.438675,9.53880312 C38.438675,11.70125 37.4587875,13.6630563 35.2620063,15.9003969 Z M18.4021991,22.9247656 C18.2535609,23.0733 18.1786175,23.2667656 18.1739334,23.4611656 C18.1620675,23.514525 18.1548853,23.5697562 18.1545731,23.62655 C18.1498891,24.3685844 18.1177259,24.9567812 18.0593322,26.0249 C18.0587078,26.03395 18.0577709,26.05205 18.0577709,26.0610969 C18.0324775,27.3136344 17.9537869,31.0646875 11.7050541,33.36225 L6.48929375,28.153025 C6.48960594,28.145225 6.49147969,28.1377344 6.49147969,28.1296219 L6.49210406,15.820825 L7.64873344,14.6525406 C8.16709312,15.4164188 8.81129531,16.1902844 9.59039625,16.9912937 L11.0958253,18.5293469 C10.6714575,18.53715 10.329215,18.8819531 10.329215,19.3078906 C10.329215,19.7388219 10.6789519,20.0879969 11.1098772,20.0879969 L15.4035194,20.0879969 C15.5833841,20.0879969 15.7466984,20.0249625 15.8784744,19.9232375 C15.9287491,19.8920344 15.9768378,19.8564594 16.0202425,19.812775 L20.5652581,15.2725687 C21.1029781,14.7349219 21.7047125,14.4294312 22.3055103,14.3891781 C22.8354237,14.3517344 23.3131891,14.5302219 23.6841597,14.9009281 C24.0548181,15.2713188 24.23156,15.7478094 24.1959619,16.2789031 C24.1553675,16.8792719 23.84966,17.4802625 23.3113153,18.0176 L18.4021991,22.9247656 Z M7.98972656,38.4057781 L1.59516625,32.0198469 L4.87644563,28.7480875 L11.2706938,35.1343344 L7.98972656,38.4057781 Z M30.455,0.000625 C27.5059697,0.000625 24.7898897,1.32586563 22.9868722,3.59628125 C21.1851038,1.32555313 18.4690237,0 15.5196819,0 C10.256145,0 5.97374438,4.27902813 5.97374438,9.53693125 C5.97155844,10.8231656 6.24791313,12.0395031 6.83590781,13.2549063 L5.15654719,14.9514781 C5.01196844,15.0975125 4.93077969,15.2947219 4.93077969,15.5000469 L4.9304675,27.1591719 C4.91235594,27.1585469 4.89518156,27.1538688 4.87707031,27.1538688 L4.87613344,27.1538688 C4.48143063,27.1538688 4.11046,27.3070812 3.83191969,27.5854219 L0.432291875,30.9754437 C-0.143836875,31.5505344 -0.144149062,32.4869719 0.431667188,33.0633125 L6.94488813,39.5681344 C7.23310875,39.8558375 7.61188594,40 7.99035094,40 C8.36850375,40 8.74665656,39.85615 9.0342525,39.5687594 L12.4338803,36.178425 C12.8538766,35.7590406 12.9644184,35.148375 12.7717509,34.6244594 C16.8249494,33.0034 19.0907431,30.4905281 19.5332225,27.1510594 L22.4057472,30.0876844 C22.5525119,30.2374625 22.7532981,30.3223406 22.96314,30.3223406 L22.9637647,30.3223406 C23.1736066,30.3223406 23.3743928,30.2380875 23.5211575,30.0886188 L36.3764781,16.9928531 C37.9318688,15.4089312 40,12.9129094 40,9.53880312 C40,4.27965312 35.7179125,0.000625 30.455,0.000625 Z" fill-rule="nonzero"></path>
            </g>
        </g>
    </g>
</svg>