<?xml version="1.0" encoding="UTF-8"?>
<svg width="81px" height="78px" viewBox="0 0 81 78" version="1.1" xmlns="http://www.w3.org/2000/svg" xmlns:xlink="http://www.w3.org/1999/xlink">
    <!-- Generator: Sketch 52.3 (67297) - http://www.bohemiancoding.com/sketch -->
    <title>Earn-Faster</title>
    <desc>Created with Sketch.</desc>
    <g id="FINAL" stroke="none" stroke-width="1" fill="none" fill-rule="evenodd">
        <g id="Group-3" transform="translate(1.000000, -1.000000)" fill="#006AC3">
            <g transform="translate(-0.617188, 1.860465)" id="Fill-1">
                <path d="M60.484375,71.7353798 L60.484375,53.1704186 L76.53125,45.2404961 L76.53125,63.8054574 L60.484375,71.7353798 Z M41.96875,45.2404961 L58.015625,53.1704186 L58.015625,71.7353798 L41.96875,63.8054574 L41.96875,45.2404961 Z M3.703125,45.2404961 L19.75,53.1704186 L19.75,71.7353798 L3.703125,63.8054574 L3.703125,45.2404961 Z M40.1171875,3.93382946 L55.7536328,11.6609612 L40.1171875,19.3874729 L24.4807422,11.6609612 L40.1171875,3.93382946 Z M22.21875,53.1704186 L38.265625,45.2404961 L38.265625,63.8054574 L22.21875,71.7353798 L22.21875,53.1704186 Z M20.984375,35.5617364 L36.6208203,43.2888682 L20.984375,51.0153798 L5.34792969,43.2888682 L20.984375,35.5617364 Z M57.3984375,32.1775504 L41.3515625,40.1074729 L41.3515625,21.5425116 L57.3984375,13.6125891 L57.3984375,32.1775504 Z M38.8828125,21.5425116 L38.8828125,40.1074729 L22.8359375,32.1775504 L22.8359375,13.6125891 L38.8828125,21.5425116 Z M59.25,51.0153798 L43.6135547,43.2888682 L59.25,35.5617364 L74.8864453,43.2888682 L59.25,51.0153798 Z M79.1999688,41.2739845 L61.1015625,32.3301085 L61.1015625,11.3155349 C61.1015625,10.6060775 60.7003906,9.95863566 60.0671563,9.64607752 L40.9343437,0.191193798 C40.418375,-0.0636899225 39.816,-0.0636899225 39.3000313,0.191193798 L20.1672187,9.64607752 C19.5339844,9.95863566 19.1328125,10.6060775 19.1328125,11.3155349 L19.1328125,32.3301085 L1.03440625,41.2739845 C0.401171875,41.5865426 0,42.2339845 0,42.9434419 L0,64.963907 C0,65.6727442 0.401171875,66.320186 1.03440625,66.6327442 L20.1672187,76.0882481 C20.4252031,76.2153798 20.7047891,76.2792558 20.984375,76.2792558 C21.2639609,76.2792558 21.5435469,76.2153798 21.8015312,76.0882481 L40.1171875,67.0370853 L58.4328437,76.0882481 C58.6908281,76.2153798 58.9704141,76.2792558 59.25,76.2792558 C59.5295859,76.2792558 59.8091719,76.2153798 60.0671563,76.0882481 L79.1999688,66.6327442 C79.8332031,66.320186 80.234375,65.6727442 80.234375,64.963907 L80.234375,42.9434419 C80.234375,42.2339845 79.8332031,41.5865426 79.1999688,41.2739845 Z"></path>
            </g>
        </g>
    </g>
</svg>