<?xml version="1.0" encoding="UTF-8"?>
<svg width="40px" height="36px" viewBox="0 0 40 36" version="1.1" xmlns="http://www.w3.org/2000/svg" xmlns:xlink="http://www.w3.org/1999/xlink">
    <!-- Generator: Sketch 52.3 (67297) - http://www.bohemiancoding.com/sketch -->
    <title>Financial_Rewards</title>
    <desc>Created with Sketch.</desc>
    <defs>
        <path d="M17.9341755,6.00907865 L11.6868609,0 L0,11.7232986 L0,35.8803987 L40,35.8803987 L40,6.00907865 L17.9341755,6.00907865 Z M5.42407837,34.5926121 L5.42407837,32.4611033 L18.501332,32.4611033 L18.501332,34.5926121 L5.42407837,34.5926121 Z M18.501332,28.7593829 L5.42407837,28.7593829 L5.42407837,26.4502483 L18.501332,26.4502483 L18.501332,28.7593829 Z M5.42407837,29.5000822 L18.501332,29.5000822 L18.501332,31.7221802 L5.42407837,31.7221802 L5.42407837,29.5000822 Z M22.6226691,34.5926121 L19.7559508,34.5926121 L19.7559508,25.1482517 L4.16945948,25.1482517 L4.16945948,34.5908358 L1.25461889,34.5908358 L1.25461889,12.2774909 L11.7040474,1.78869116 L22.6226691,12.2863722 L22.6226691,34.5926121 Z M38.7453811,34.5926121 L23.8755693,34.5926121 L23.8755693,12.6505049 L38.7453811,12.6505049 L38.7453811,34.5926121 Z M23.5112142,11.3556133 L19.6425195,7.30574652 L38.7453811,7.30574652 L38.7453811,11.3556133 L23.5112142,11.3556133 Z M4.18604651,22.0066445 L4.18604651,15.3089701 L19.5348837,15.3089701 L19.5348837,22.0066445 L4.18604651,22.0066445 Z M10.0080776,20.7038728 L13.5368377,20.7038728 L13.5368377,16.6117418 L10.0080776,16.6117418 L10.0080776,20.7038728 Z M18.301087,20.7038728 L18.301087,16.6117418 L14.2392049,16.6117418 L14.2392049,20.7038728 L18.301087,20.7038728 Z M5.42153567,16.6117418 L5.42153567,20.7038728 L9.30232558,20.7038728 L9.30232558,16.6117418 L5.42153567,16.6117418 Z M36.2790698,15.3089701 L36.2721339,22.0066445 L26.5116279,22.0066445 L26.5116279,15.3089701 L36.2790698,15.3089701 Z M27.7826265,16.6117418 L27.7826265,20.7038728 L31.0372844,20.7038728 L31.0372844,16.6117418 L27.7826265,16.6117418 Z M35.0080712,20.7038728 L35.0080712,16.6117418 L31.7603491,16.6117418 L31.7603491,20.7038728 L35.0080712,20.7038728 Z M36.2790698,24.8770764 L36.2790698,31.5747508 L26.5116279,31.5747508 L26.5116279,24.8770764 L36.2790698,24.8770764 Z M27.9308289,26.3253161 L27.9308289,30.1265111 L31.0401227,30.1265111 L31.0401227,26.3253161 L27.9308289,26.3253161 Z M34.8564614,30.1265111 L34.8581651,26.3253161 L31.750575,26.3253161 L31.750575,30.1265111 L34.8564614,30.1265111 Z M10.2325581,9.80730897 C10.2334645,8.88293955 10.9617726,8.13382266 11.8604651,8.13289037 C12.7595333,8.13289037 13.4883721,8.88255311 13.4883721,9.80730897 C13.4883721,10.7320648 12.7595333,11.4817276 11.8604651,11.4817276 C10.9613969,11.4817276 10.2325581,10.7320648 10.2325581,9.80730897 Z M11.8604651,8.83817578 L11.8604651,8.83648445 C11.3398295,8.83741739 10.9182515,9.2717972 10.9182523,9.80730897 C10.9182523,10.3425465 11.3400953,10.7764422 11.8604651,10.7764422 C12.3808349,10.7764422 12.8026779,10.3425465 12.8026779,9.80730897 C12.8026779,9.27207149 12.3808349,8.83817578 11.8604651,8.83817578 Z" id="path-1"></path>
    </defs>
    <g id="FINAL" stroke="none" stroke-width="1" fill="none" fill-rule="evenodd">
        <g id="Icons-/-Marketing-/-house-/-20x20" transform="translate(0.000000, -2.000000)">
            <g id="icn_house" transform="translate(0.000000, 2.000000)">
                <g id="Colours-/-RBC-Brand-/-Blue">
                    <mask id="mask-2" fill="white">
                        <use xlink:href="#path-1"></use>
                    </mask>
                    <use id="Mask" fill="#006AC3" fill-rule="nonzero" xlink:href="#path-1"></use>
                    <g mask="url(#mask-2)" fill="#006AC3">
                        <g transform="translate(0.000000, -2.571429)">
                            <rect x="0" y="0" width="40" height="41"></rect>
                        </g>
                    </g>
                </g>
            </g>
        </g>
    </g>
</svg>