<?xml version="1.0" encoding="UTF-8"?>
<svg width="64px" height="64px" viewBox="0 0 64 64" version="1.1" xmlns="http://www.w3.org/2000/svg" xmlns:xlink="http://www.w3.org/1999/xlink">
    <!-- Generator: Sketch 52.3 (67297) - http://www.bohemiancoding.com/sketch -->
    <title>Flights</title>
    <desc>Created with Sketch.</desc>
    <g id="Page-1" stroke="none" stroke-width="1" fill="none" fill-rule="evenodd">
        <g id="Flights" fill="#006AC3" fill-rule="nonzero">
            <path d="M60.3791949,9.22302747 C60.1658824,9.65421197 59.9189414,10.1059765 59.6448974,10.574808 L58.6992954,9.62911347 C59.6162884,8.40583548 60.7044339,6.12843898 59.3854089,4.62707449 C59.3738649,4.61402349 59.3618189,4.60147449 59.3487694,4.59043149 C57.9122969,3.32799999 55.6572059,4.22249399 54.3045529,5.23394498 L53.4533104,4.38211749 C55.8946104,2.95403899 57.5378704,2.50930199 58.6365564,2.50930199 C59.6915754,2.50930199 60.3465704,2.90735699 60.7255144,3.25923149 L60.7706864,3.30440799 C62.1308679,4.79422749 61.3097399,7.34368648 60.3791949,9.22302747 Z M48.2570144,24.2913879 L47.9513499,24.6010979 C47.9147104,24.6181644 47.8780709,24.6362354 47.8469524,24.6653489 L35.588754,36.1246119 C35.5506085,36.1602509 35.5219995,36.2024154 35.5009195,36.2475919 L34.897621,36.7741489 C30.924987,40.2437019 26.574915,43.8859294 21.96937,47.5984314 L21.255149,48.1736784 L21.271712,48.2163449 L14.6801005,53.0336623 L14.171162,52.5246743 L16.127615,50.5685334 C17.933495,48.7629804 19.4808895,46.4228389 18.611578,45.5524389 C17.7407605,44.6830429 15.4018505,46.2300864 13.5959705,48.0361409 L11.6395175,49.9922824 L10.819895,49.1730824 L15.8289775,42.7504939 L15.8350005,42.7530039 L16.4101915,42.0382119 C20.102759,37.4522979 23.743629,33.1023059 27.2329215,29.1092079 L28.1027355,28.1133174 L28.0515405,28.0731609 L39.2266125,16.3503685 C39.288348,16.2856155 39.3169565,16.2048 39.327497,16.1224785 L39.709954,15.746008 C45.4819424,10.0658195 49.6859584,6.71924698 52.7466179,4.81079199 L53.9903559,6.05465098 C54.1374164,6.20172548 54.3733149,6.21176448 54.5329229,6.07774098 C55.6471679,5.13756849 57.7014939,4.24307449 58.7991759,5.17621949 C59.7568239,6.30362348 58.7324214,8.36216448 57.8560829,9.40122347 C57.7215704,9.56034497 57.7316089,9.79626647 57.8791709,9.94384297 L59.2157629,11.2810665 C57.0625599,14.7245175 53.3910729,19.0855529 48.2570144,24.2913879 Z M51.2609584,35.3837174 C51.2539314,35.4409409 51.2564409,35.4996704 51.2760154,35.5583999 L53.6897109,42.7530039 L53.6535729,42.7891449 L59.0134919,58.7871373 C59.3015899,59.7544153 58.8679374,60.7854428 57.9654999,61.2532703 C57.6698734,61.4088783 57.3340944,61.4911998 56.9942999,61.4911998 C56.4346679,61.4911998 55.9106719,61.2763608 55.5196824,60.8858353 L55.5086399,60.8747918 C55.4770199,60.8441723 55.4464029,60.8105408 55.4142809,60.7728938 L56.4607674,59.7263058 C56.5962834,59.5907763 56.6173639,59.3779448 56.5104564,59.2188233 L39.4198485,33.7699134 C39.40178,33.7428079 39.3761825,33.7252389 39.3530945,33.7041569 L47.9829704,25.6366429 L51.2609584,35.3837174 Z M53.2525454,35.1066354 C53.9717854,34.3878274 55.1422444,34.3863214 55.8619864,35.1066354 L57.5735064,36.3781019 C58.2340229,37.1014274 58.2144479,38.2273254 57.5152844,38.9265569 L54.3236259,42.1190274 L52.2938934,36.0688939 L53.2525454,35.1066354 Z M36.3611965,36.5010824 L38.772884,34.2462744 L55.6602174,59.3925018 L54.9143764,60.1379133 L36.3611965,36.5010824 Z M25.123385,58.1456313 C25.4596665,59.0095058 25.140952,60.0003763 24.3634905,60.5043448 C23.5970705,61.0042978 22.534523,60.8868388 21.8960905,60.2508548 L15.254288,53.6079058 L21.5723575,48.9908704 L25.123385,58.1456313 Z M11.464852,54.0958118 C9.53550205,55.7919373 7.96451706,56.6603293 7.16999056,56.8992623 C7.36222256,56.2612703 7.96250956,55.1208153 9.06822205,53.6982588 L14.1631315,48.6038589 C15.0630595,47.7043449 16.004145,46.9599374 16.813227,46.5081724 C17.6719985,46.0287999 18.012797,46.0885334 18.0439155,46.1206589 C18.239661,46.3299764 17.611769,47.9493019 15.5604545,50.0008154 L11.464852,54.0958118 Z M3.50000957,39.6438589 C3.99941207,38.8803764 5.00173007,38.5576154 5.86250956,38.8818824 L15.0480025,42.4473099 L10.2482171,48.6013489 L3.75648657,42.1084864 C3.10550657,41.4529254 2.99809707,40.4153724 3.50000957,39.6438589 Z M3.94269557,9.14773347 L4.70660607,8.38324698 L29.7053405,25.1748389 L27.4171235,27.5752154 L3.94269557,9.14773347 Z M2.75416807,6.03607848 C3.11705057,5.33534098 3.83076957,4.90064299 4.61726557,4.90064299 C4.83459357,4.90064299 5.04539657,4.93377249 5.24415357,4.99952949 L20.4651395,10.2048625 C20.4872235,10.21691 20.505292,10.2334745 20.529384,10.241506 L21.6170275,10.598902 L21.778643,10.6541175 L21.780149,10.652612 L27.466311,12.52091 L27.4632995,12.5239215 L28.0048625,12.6976 L28.6483135,12.9089255 C28.658854,12.912439 28.669394,12.9114355 28.679934,12.913945 L38.4170285,16.036643 L30.267482,24.5855374 L4.88026757,7.53292548 C4.72065957,7.42600798 4.50784857,7.44658798 4.37283457,7.58211748 L3.30777707,8.64727848 C3.24855157,8.60159998 3.19183557,8.55341198 3.13060207,8.49066648 C2.47761457,7.83861948 2.32503307,6.85477648 2.75416807,6.03607848 Z M25.5148765,6.91802348 C26.1889445,6.24338798 26.425847,6.14500398 26.47654,6.13345898 C26.478046,6.13396098 26.6230985,6.16658798 26.9438205,6.48683898 L28.916335,8.46054898 C29.635575,9.17985897 29.635575,10.3509335 28.915833,11.070243 L28.1022335,11.8844235 L22.4160715,10.0166275 L25.5148765,6.91802348 Z M62.6036694,1.5917175 L62.5293864,1.5154195 C62.4932484,1.4782745 62.4571109,1.4416315 62.4079234,1.394949 C61.7157869,0.758462498 60.4996539,0 58.6365564,0 C54.3432004,0 47.7505854,4.39316099 38.492817,13.426447 L31.7039545,11.249443 C32.259571,9.70992947 31.9212825,7.91792948 30.690594,6.68661948 L28.7175775,4.71341199 C26.4449195,2.44003149 24.5496995,4.33493349 23.7411195,5.14409399 L21.110598,7.77436848 L6.14608956,2.65587449 L6.00756206,2.58760799 L5.89613756,2.57505899 C5.48356607,2.45358449 5.05443107,2.39184299 4.61726557,2.39184299 C2.88968407,2.39184299 1.32221308,3.34607049 0.529693579,4.87654899 C-0.409885918,6.66804698 -0.0766159188,8.83400797 1.34781058,10.2560625 C1.49336508,10.404141 1.65096508,10.5426825 1.79702158,10.652612 L24.4759185,28.4556549 C21.413753,31.9864469 18.2441785,35.7772549 15.032945,39.7502744 L6.75992806,36.5392314 C6.23793956,36.3419609 5.69687856,36.2420704 5.15130007,36.2420704 C3.63351807,36.2420704 2.23117557,37.0000314 1.39900558,38.2730039 C0.25514758,40.0308704 0.49807308,42.3875764 1.97971758,43.8794039 L8.54522956,50.4460549 C7.28292056,51.8184154 6.23041106,53.2163763 5.53325507,54.4647528 C4.40445507,56.4871528 4.29102257,57.9709488 5.19546857,58.8744783 C5.59750006,59.2765488 6.11346556,59.4778353 6.74085556,59.4778353 C7.52484206,59.4778353 8.48198856,59.1636078 9.60476605,58.5366588 C10.853021,57.8394353 12.2508465,56.7868233 13.623074,55.5243918 L20.123337,62.0257878 C20.968557,62.8690823 22.09284,63.3333958 23.2899005,63.3333958 C24.15871,63.3333958 25.004432,63.0814118 25.730699,62.6075608 C27.498935,61.4615843 28.2267075,59.2027608 27.4617935,57.2370823 L24.257085,48.9753099 C28.2447765,45.7492079 32.0357185,42.5788234 35.5506085,39.5314194 L53.3368664,62.1904313 C53.4598349,62.3570823 53.5998684,62.5167058 53.7519479,62.6657878 C54.6162404,63.5266508 55.7676269,63.9999998 56.9942999,63.9999998 C57.7396394,63.9999998 58.4794579,63.8182898 59.1269244,63.4769568 C61.1210209,62.4429173 62.0736499,60.1354038 61.3930574,57.9910273 L56.5255139,43.4642824 L59.2890419,40.7004864 C60.9860064,39.0033569 60.9860064,36.2410664 59.2895439,34.5434354 L57.5609584,33.2599214 C56.2855999,32.0426664 54.4465944,31.7505254 52.8991994,32.3860079 L50.5838789,25.5016154 C56.6876314,19.2587294 60.7380619,14.158306 62.6277609,10.3353725 C64.9496064,5.64555298 63.8960929,2.99168649 62.6036694,1.5917175 Z" id="Shape"></path>
        </g>
    </g>
</svg>