<?xml version="1.0" encoding="UTF-8"?>
<svg width="64px" height="62px" viewBox="0 0 64 62" version="1.1" xmlns="http://www.w3.org/2000/svg" xmlns:xlink="http://www.w3.org/1999/xlink">
    <!-- Generator: Sketch 52.3 (67297) - http://www.bohemiancoding.com/sketch -->
    <title>Hotel</title>
    <desc>Created with Sketch.</desc>
    <g id="Page-1" stroke="none" stroke-width="1" fill="none" fill-rule="evenodd">
        <g id="Hotel" fill="#006AC3" fill-rule="nonzero">
            <path d="M39.803,28.4955 C39.3625,28.4955 39.005,28.1385 39.005,27.6975 L39.005,23.8375 C39.005,23.397 39.3625,23.0395 39.803,23.0395 L43.1165,23.0395 C43.5575,23.0395 43.915,23.397 43.915,23.8375 L43.915,27.6975 C43.915,28.1385 43.5575,28.4955 43.1165,28.4955 L39.803,28.4955 Z M39.803,27.6975 L43.1165,27.6975 L43.1165,23.8375 L39.803,23.8375 L39.803,27.6975 Z M20.7355,39.388 C20.2945,39.388 19.9375,39.031 19.9375,38.59 L19.9375,34.73 C19.9375,34.2895 20.2945,33.932 20.7355,33.932 L24.049,33.932 C24.49,33.932 24.847,34.2895 24.847,34.73 L24.847,38.59 C24.847,39.031 24.49,39.388 24.049,39.388 L20.7355,39.388 Z M20.7355,38.59 L24.049,38.59 L24.049,34.73 L20.7355,34.73 L20.7355,38.59 Z M39.803,39.388 C39.3625,39.388 39.005,39.031 39.005,38.59 L39.005,34.73 C39.005,34.2895 39.3625,33.932 39.803,33.932 L43.1165,33.932 C43.5575,33.932 43.915,34.2895 43.915,34.73 L43.915,38.59 C43.915,39.031 43.5575,39.388 43.1165,39.388 L39.803,39.388 Z M39.803,38.59 L43.1165,38.59 L43.1165,34.73 L39.803,34.73 L39.803,38.59 Z M20.7355,28.4955 C20.2945,28.4955 19.9375,28.1385 19.9375,27.6975 L19.9375,23.8375 C19.9375,23.397 20.2945,23.0395 20.7355,23.0395 L24.049,23.0395 C24.49,23.0395 24.847,23.397 24.847,23.8375 L24.847,27.6975 C24.847,28.1385 24.49,28.4955 24.049,28.4955 L20.7355,28.4955 Z M20.7355,27.6975 L24.049,27.6975 L24.049,23.8375 L20.7355,23.8375 L20.7355,27.6975 Z M30.2695,28.4955 C29.8285,28.4955 29.4715,28.1385 29.4715,27.6975 L29.4715,23.8375 C29.4715,23.397 29.8285,23.0395 30.2695,23.0395 L33.583,23.0395 C34.0235,23.0395 34.381,23.397 34.381,23.8375 L34.381,27.6975 C34.381,28.1385 34.0235,28.4955 33.583,28.4955 L30.2695,28.4955 Z M30.2695,27.6975 L33.5825,27.6975 L33.5825,23.8375 L30.2695,23.8375 L30.2695,27.6975 Z M5.8945,39.388 C5.4535,39.388 5.0965,39.031 5.0965,38.59 L5.0965,34.73 C5.0965,34.2895 5.4535,33.932 5.8945,33.932 L9.208,33.932 C9.649,33.932 10.006,34.2895 10.006,34.73 L10.006,38.59 C10.006,39.031 9.649,39.388 9.208,39.388 L5.8945,39.388 Z M5.8945,38.59 L9.2075,38.59 L9.2075,34.73 L5.8945,34.73 L5.8945,38.59 Z M5.8945,50.274 C5.4535,50.274 5.0965,49.917 5.0965,49.476 L5.0965,45.616 C5.0965,45.1755 5.4535,44.818 5.8945,44.818 L9.208,44.818 C9.649,44.818 10.006,45.1755 10.006,45.616 L10.006,49.476 C10.006,49.917 9.649,50.274 9.208,50.274 L5.8945,50.274 Z M5.8945,49.476 L9.2075,49.476 L9.2075,45.616 L5.8945,45.616 L5.8945,49.476 Z M51.479,58.6 L61.506,58.6 L61.506,25.012 L51.479,25.012 L51.479,58.6 Z M32.3255,58.624 L38.299,58.624 L38.299,45.142 L32.3255,45.142 L32.3255,58.624 Z M25.5535,58.624 L31.5275,58.624 L31.5275,45.142 L25.5535,45.142 L25.5535,58.624 Z M19.3925,13.705 L44.4595,13.705 L44.4595,8.1865 L19.3925,8.1865 L19.3925,13.705 Z M51.479,22.518 L61.506,22.518 C62.8835,22.518 64,23.6345 64,25.012 L64,58.6 C64,59.9775 62.8835,61.094 61.506,61.094 L2.4945,61.094 C1.117,61.094 0,59.9775 0,58.6 L0,25.012 C0,23.6345 1.117,22.518 2.4945,22.518 L12.5695,22.518 L12.5695,16.199 C12.5695,14.8215 13.686,13.705 15.0635,13.705 L16.8985,13.705 L16.8985,8.1345 C16.8985,6.757 18.0555,5.6405 19.4835,5.6405 L21.6385,5.6405 L21.6385,2.4945 C21.6385,1.117 22.796,0 24.224,0 L39.6285,0 C41.056,0 42.2135,1.117 42.2135,2.4945 L42.2135,5.6405 L44.3685,5.6405 C45.7965,5.6405 46.9535,6.757 46.9535,8.1345 L46.9535,13.705 L48.985,13.705 C50.3625,13.705 51.479,14.8215 51.479,16.199 L51.479,22.518 Z M24.133,1.5205 L24.123,6.388 L39.717,6.388 L39.719,1.521 C39.706,1.51 39.678,1.4945 39.6285,1.4945 L24.224,1.4945 C24.174,1.4945 24.146,1.51 24.133,1.5205 Z M48.985,58.624 L48.985,16.199 C48.2255,16.199 15.0655,16.1955 15.0655,16.1955 C15.0655,16.1955 15.0635,55.5295 15.0635,58.6 L15.0635,58.624 L24.786,58.624 L24.786,45.142 C24.786,44.7185 25.1295,44.375 25.5535,44.375 L38.299,44.375 C38.7225,44.375 39.066,44.7185 39.066,45.142 L39.066,58.624 L48.985,58.624 Z M2.4945,58.6 L12.5695,58.6 L12.5695,25.012 L2.4945,25.012 L2.4945,58.6 Z M30.2695,39.388 C29.8285,39.388 29.4715,39.031 29.4715,38.59 L29.4715,34.73 C29.4715,34.2895 29.8285,33.932 30.2695,33.932 L33.583,33.932 C34.0235,33.932 34.381,34.2895 34.381,34.73 L34.381,38.59 C34.381,39.031 34.0235,39.388 33.583,39.388 L30.2695,39.388 Z M30.2695,38.59 L33.5825,38.59 L33.5825,34.73 L30.2695,34.73 L30.2695,38.59 Z M54.8355,39.388 C54.3945,39.388 54.037,39.031 54.037,38.59 L54.037,34.73 C54.037,34.2895 54.3945,33.932 54.8355,33.932 L58.149,33.932 C58.5895,33.932 58.947,34.2895 58.947,34.73 L58.947,38.59 C58.947,39.031 58.5895,39.388 58.149,39.388 L54.8355,39.388 Z M54.8355,38.59 L58.149,38.59 L58.149,34.73 L54.8355,34.73 L54.8355,38.59 Z M54.8355,50.274 C54.3945,50.274 54.037,49.917 54.037,49.476 L54.037,45.616 C54.037,45.1755 54.3945,44.818 54.8355,44.818 L58.149,44.818 C58.5895,44.818 58.947,45.1755 58.947,45.616 L58.947,49.476 C58.947,49.917 58.5895,50.274 58.149,50.274 L54.8355,50.274 Z M54.8355,49.476 L58.149,49.476 L58.149,45.616 L54.8355,45.616 L54.8355,49.476 Z" id="hotel-128"></path>
        </g>
    </g>
</svg>