<?xml version="1.0" encoding="UTF-8"?>
<svg width="64px" height="64px" viewBox="0 0 64 64" version="1.1" xmlns="http://www.w3.org/2000/svg" xmlns:xlink="http://www.w3.org/1999/xlink">
    <!-- Generator: Sketch 52.3 (67297) - http://www.bohemiancoding.com/sketch -->
    <title>Hotel_flights</title>
    <desc>Created with Sketch.</desc>
    <g id="Page-1" stroke="none" stroke-width="1" fill="none" fill-rule="evenodd">
        <g id="Hotel_flights" fill="#006AC3" fill-rule="nonzero">
            <path d="M26.7164532,45.9445 C26.2749532,45.9445 25.9164532,45.587 25.9164532,45.1455 L25.9164532,42.6465 C25.9164532,42.2055 26.2749532,41.8475 26.7164532,41.8475 L28.8049532,41.8475 C29.2464532,41.8475 29.6039532,42.2055 29.6039532,42.6465 L29.6039532,45.1455 C29.6039532,45.587 29.2464532,45.9445 28.8049532,45.9445 L26.7164532,45.9445 Z M26.7164532,45.1455 L28.8049532,45.1455 L28.8049532,42.6465 L26.7164532,42.6465 L26.7164532,45.1455 Z M42.0359532,37.2585 C41.5939532,37.2585 41.2359532,36.9005 41.2359532,36.459 L41.2359532,33.9605 C41.2359532,33.5195 41.5939532,33.1615 42.0359532,33.1615 L44.1239532,33.1615 C44.5649532,33.1615 44.9229532,33.5195 44.9229532,33.9605 L44.9229532,36.459 C44.9229532,36.9005 44.5649532,37.2585 44.1239532,37.2585 L42.0359532,37.2585 Z M42.0359532,36.4595 L44.1239532,36.4595 L44.1239532,33.9605 L42.0359532,33.9605 L42.0359532,36.4595 Z M34.3754532,37.2585 C33.9344532,37.2585 33.5764532,36.9005 33.5764532,36.459 L33.5764532,33.9605 C33.5764532,33.5195 33.9344532,33.1615 34.3754532,33.1615 L36.4639532,33.1615 C36.9059532,33.1615 37.2639532,33.5195 37.2639532,33.9605 L37.2639532,36.459 C37.2639532,36.9005 36.9059532,37.2585 36.4639532,37.2585 L34.3754532,37.2585 Z M34.3754532,36.4595 L36.4639532,36.4595 L36.4639532,33.9605 L34.3754532,33.9605 L34.3754532,36.4595 Z M55.8384532,45.9445 C55.3969532,45.9445 55.0394532,45.587 55.0394532,45.1455 L55.0394532,42.6465 C55.0394532,42.2055 55.3969532,41.8475 55.8384532,41.8475 L57.9269532,41.8475 C58.3684532,41.8475 58.7264532,42.2055 58.7264532,42.6465 L58.7264532,45.1455 C58.7264532,45.587 58.3684532,45.9445 57.9269532,45.9445 L55.8384532,45.9445 Z M55.8384532,45.1455 L57.9274532,45.1455 L57.9274532,42.6465 L55.8384532,42.6465 L55.8384532,45.1455 Z M26.7164532,37.2585 C26.2749532,37.2585 25.9164532,36.9005 25.9164532,36.459 L25.9164532,33.9605 C25.9164532,33.5195 26.2749532,33.1615 26.7164532,33.1615 L28.8049532,33.1615 C29.2464532,33.1615 29.6039532,33.5195 29.6039532,33.9605 L29.6039532,36.459 C29.6039532,36.9005 29.2464532,37.2585 28.8049532,37.2585 L26.7164532,37.2585 Z M26.7164532,36.459 L28.8049532,36.459 L28.8049532,33.96 L26.7164532,33.96 L26.7164532,36.459 Z M42.0359532,45.9445 C41.5939532,45.9445 41.2359532,45.587 41.2359532,45.1455 L41.2359532,42.6465 C41.2359532,42.2055 41.5939532,41.8475 42.0359532,41.8475 L44.1239532,41.8475 C44.5649532,41.8475 44.9229532,42.2055 44.9229532,42.6465 L44.9229532,45.1455 C44.9229532,45.587 44.5649532,45.9445 44.1239532,45.9445 L42.0359532,45.9445 Z M42.0359532,45.1455 L44.1239532,45.1455 L44.1239532,42.6465 L42.0359532,42.6465 L42.0359532,45.1455 Z M61.5014532,61.345 L52.3429532,61.345 L52.3429532,35.5675 L52.3434532,35.5675 L61.5014532,35.5675 L61.5014532,61.345 Z M49.8449532,61.352 C49.8034532,61.355 49.7624532,61.3585 49.7204532,61.3635 L40.3069532,61.3635 L40.3069532,50.761 C40.3069532,50.3195 39.9489532,49.9615 39.5069532,49.9615 L31.2449532,49.9615 C30.8029532,49.9615 30.4454532,50.3195 30.4454532,50.761 L30.4454532,61.3635 L21.1029532,61.3635 C21.0869532,61.3615 21.0704532,61.36 21.0534532,61.3585 L21.0534532,28.1885 L49.8449532,28.1885 L49.8449532,61.352 Z M35.7749532,61.3635 L35.7749532,50.761 L39.5069532,50.761 L39.5069532,61.3635 L35.7749532,61.3635 Z M31.2449532,61.3635 L31.2449532,50.761 L34.9764532,50.761 L34.9764532,61.3635 L31.2449532,61.3635 Z M29.2709532,17.9585 L41.5519532,17.9585 L41.5529532,21.4025 L29.2709532,21.4025 L29.2709532,17.9585 Z M18.5554532,61.345 L9.33845322,61.345 L9.33845322,35.5675 L18.4789532,35.5675 C18.5054532,35.5675 18.5294532,35.561 18.5554532,35.5605 L18.5554532,61.345 Z M25.2904532,26.691 L25.2904532,22.594 L45.5324532,22.594 L45.5324532,26.691 L25.2904532,26.691 Z M61.5014532,33.0695 L52.3439532,33.0695 L52.3439532,28.1885 C52.3439532,28.1855 52.3429532,28.1825 52.3429532,28.1795 L52.3429532,28.078 L52.3329532,28.078 C52.2734532,26.751 51.1874532,25.6905 49.8459532,25.6905 L48.0309532,25.6905 L48.0309532,21.5695 C48.0309532,20.535 47.0589532,19.6965 45.8594532,19.6965 L44.0504532,19.6965 L44.0504532,17.3335 C44.0504532,16.299 43.0784532,15.4605 41.8789532,15.4605 L28.9439532,15.4605 C27.7449532,15.4605 26.7724532,16.299 26.7724532,17.3335 L26.7724532,19.6965 L24.9634532,19.6965 C23.7644532,19.6965 22.7919532,20.535 22.7919532,21.5695 L22.7919532,25.6905 L20.9774532,25.6905 C19.5974532,25.6905 18.4789532,26.809 18.4789532,28.1885 L18.4789532,33.0695 L9.33845322,33.0695 C7.95845322,33.0695 6.84045322,34.188 6.84045322,35.5675 L6.84045322,61.345 C6.84045322,62.7255 7.95845322,63.843 9.33845322,63.843 L61.5014532,63.843 C62.8814532,63.843 63.9999532,62.7255 63.9999532,61.345 L63.9999532,35.5675 C63.9999532,34.188 62.8814532,33.0695 61.5014532,33.0695 Z M34.3754532,45.9445 C33.9344532,45.9445 33.5764532,45.587 33.5764532,45.1455 L33.5764532,42.6465 C33.5764532,42.2055 33.9344532,41.8475 34.3754532,41.8475 L36.4639532,41.8475 C36.9059532,41.8475 37.2639532,42.2055 37.2639532,42.6465 L37.2639532,45.1455 C37.2639532,45.587 36.9059532,45.9445 36.4639532,45.9445 L34.3754532,45.9445 Z M34.3754532,45.1455 L36.4639532,45.1455 L36.4639532,42.6465 L34.3754532,42.6465 L34.3754532,45.1455 Z M14.9279532,41.8475 C15.3699532,41.8475 15.7279532,42.2055 15.7279532,42.6465 L15.7279532,45.1455 C15.7279532,45.587 15.3699532,45.9445 14.9279532,45.9445 L12.8404532,45.9445 C12.3989532,45.9445 12.0409532,45.587 12.0409532,45.1455 L12.0409532,42.6465 C12.0409532,42.2055 12.3989532,41.8475 12.8404532,41.8475 L14.9279532,41.8475 Z M12.8394532,45.1455 L14.9279532,45.1455 L14.9279532,42.6465 L12.8394532,42.6465 L12.8394532,45.1455 Z M14.9279532,53.26 L12.8404532,53.2595 L12.8404532,50.761 L14.9279532,50.761 L14.9279532,53.26 Z M14.9279532,49.9615 L12.8404532,49.9615 C12.3989532,49.9615 12.0409532,50.3195 12.0409532,50.761 L12.0409532,53.2595 C12.0409532,53.7015 12.3989532,54.0595 12.8404532,54.0595 L14.9279532,54.0595 C15.3699532,54.0595 15.7279532,53.7015 15.7279532,53.2595 L15.7279532,50.761 C15.7279532,50.3195 15.3699532,49.9615 14.9279532,49.9615 Z M55.8384532,50.761 L57.9269532,50.761 L57.9269532,53.26 L55.8384532,53.2595 L55.8384532,50.761 Z M55.8384532,54.0595 L57.9269532,54.0595 C58.3684532,54.0595 58.7264532,53.7015 58.7264532,53.2595 L58.7264532,50.761 C58.7264532,50.3195 58.3684532,49.9615 57.9269532,49.9615 L55.8384532,49.9615 C55.3969532,49.9615 55.0394532,50.3195 55.0394532,50.761 L55.0394532,53.2595 C55.0394532,53.7015 55.3969532,54.0595 55.8384532,54.0595 Z M2.95995322,11.2995 C3.48895322,11.1075 4.14345322,10.893 4.60845322,10.8145 C4.63595322,10.827 4.66445322,10.838 4.69345322,10.848 L8.18695322,12.086 C8.51095322,12.2005 8.86895322,12.177 9.17495322,12.0195 C9.85595322,11.6695 12.4384532,10.343 15.4809532,8.79 C15.9904532,8.5305 16.2704532,7.9485 16.1234532,7.3645 C16.0324532,7.0055 15.7669532,6.7155 15.4389532,6.543 L9.53445322,3.4315 L10.6694532,2.908 C10.6974532,2.899 10.7624532,2.8915 10.7664532,2.8895 L21.8204532,5.2655 C22.0984532,5.3255 22.3924532,5.2865 22.6459532,5.1585 C25.1964532,3.8785 26.8369532,3.076 27.5219532,2.773 C27.9354532,2.5905 28.4639532,2.498 29.0929532,2.498 C29.5049532,2.498 29.8959532,2.538 30.2359532,2.5965 C30.7759532,2.69 31.0404532,3.2975 30.7399532,3.7565 C30.3369532,4.3745 29.5399532,5.185 27.9779532,6.087 L10.9879532,14.745 C10.8229532,14.8255 10.6239532,14.896 10.5039532,14.917 C9.98845322,15.0075 9.37795322,15.0495 8.58245322,15.0495 L8.23795322,15.0495 C8.07795322,15.0185 7.87495322,15.0175 7.79195322,14.983 L2.95995322,11.2995 Z M7.99495322,17.548 L8.58245322,17.548 C9.52645322,17.548 10.2744532,17.4935 10.9359532,17.3775 C11.4119532,17.2945 11.8549532,17.101 12.1054532,16.9795 L29.1409532,8.2985 C29.1594532,8.2885 29.1774532,8.279 29.1959532,8.268 C34.0929532,5.453 33.8919532,2.4305 33.4409532,1.604 C32.6099532,0.0445 29.4499532,0 29.0929532,0 C28.1134532,0 27.2454532,0.164 26.5114532,0.4885 C25.8269532,0.791 24.2814532,1.5455 21.9154532,2.7305 L11.2894532,0.4465 C10.7724532,0.338 10.1269532,0.408 9.64645322,0.629 L7.22245322,1.7475 C6.57295322,2.0465 6.15795322,2.657 6.14045322,3.3415 C6.12195322,4.025 6.50295322,4.6575 7.13545322,4.992 L12.2014532,7.6605 C10.5884532,8.4855 9.25995322,9.168 8.51245322,9.5515 L5.58745322,8.5145 C5.18895322,8.3335 4.76045322,8.2695 4.34195322,8.328 C3.11745322,8.5 1.29745322,9.2635 1.21995322,9.296 C1.20595322,9.302 1.15945322,9.3235 1.14495322,9.3305 C1.12895322,9.3375 1.11295322,9.3455 1.09745322,9.3535 C0.496953215,9.667 0.0919532151,10.256 0.0134532151,10.9315 C-0.0595467849,11.572 0.167453215,12.202 0.623453215,12.639 C0.669953215,12.6875 0.719453215,12.7325 0.772953215,12.7735 L6.34445322,17.0205 C6.35945322,17.0315 6.37395322,17.0425 6.38895322,17.0525 C6.48795322,17.1215 6.96645322,17.4305 7.67595322,17.507 C7.77795322,17.534 7.88445322,17.548 7.99495322,17.548 Z" id="flight-hotel-128"></path>
        </g>
    </g>
</svg>