<svg xmlns="http://www.w3.org/2000/svg" viewBox="0 0 25.63 40"><defs><style>.cls-1{fill:#006ac3}</style></defs><title>tips_spotlight_40</title><g id="Layer_2" data-name="Layer 2"><g id="Layer_1-2" data-name="Layer 1"><path id="tips-spotlight_40x40" class="cls-1" d="M25.62 12.44A12.71 12.71 0 0 0 12.92 0h-.85A13.09 13.09 0 0 0 0 13a12.77 12.77 0 0 0 3.84 9c1.27 1.2 2.74 3 2.77 5l.1 7a1.88 1.88 0 0 0 1.85 1.85 4.54 4.54 0 0 0 9-.12h.06a1.88 1.88 0 0 0 1.86-1.91l-.1-7c0-2 1.39-3.86 2.62-5.14a12.77 12.77 0 0 0 3.62-9.24zM8.43 29l9.22-.13v2.3l-9.22.14zm4.68 9.24a2.75 2.75 0 0 1-2.75-2.36l5.44-.08a2.75 2.75 0 0 1-2.69 2.4zm4.52-4.26l-9 .13A.09.09 0 0 1 8.5 34v-2.15l9.22-.13v2.15a.09.09 0 0 1-.08.07zm3.14-13.51c-2.13 2.21-3.16 4.31-3.13 6.41v1.39l-9.22.14L8.4 27c0-2.1-1.11-4.17-3.31-6.32A11 11 0 0 1 1.8 13a10.75 10.75 0 0 1 3-7.55 11.52 11.52 0 0 1 7.42-3.59h.72A10.91 10.91 0 0 1 23.83 12.5a10.94 10.94 0 0 1-3.05 7.93z"/></g></g></svg>