<svg xmlns="http://www.w3.org/2000/svg" viewBox="0 0 80 77.61"><defs><style>.cls-1{fill:#006ac3}</style></defs><title>compare</title><g id="Layer_2" data-name="Layer 2"><g id="Basic"><g id="Marketing"><g id="Icons"><path id="icon-compare_40_" data-name="icon-compare (40)" class="cls-1" d="M79.78 44.78L66 13.86a.5.5 0 0 0-.46-.3h-18a8.06 8.06 0 0 0-6-5.46V1.56a1.56 1.56 0 0 0-3.13 0v6.55a8.06 8.06 0 0 0-5.93 5.45h-18a.5.5 0 0 0-.46.3L.22 44.78a1.64 1.64 0 0 0-.22.79 14 14 0 0 0 14.32 14.26 14 14 0 0 0 14.32-14.27 1.55 1.55 0 0 0-.26-.86l-12.21-28h16a8 8 0 0 0 6.23 6.83v51h-8.91a1.56 1.56 0 0 0 0 3.13h21a1.56 1.56 0 1 0 0-3.13h-8.93v-51a8 8 0 0 0 6.27-6.84h16l-12.21 28a1.55 1.55 0 0 0-.26.86 14 14 0 0 0 14.32 14.28A14 14 0 0 0 80 45.56a1.64 1.64 0 0 0-.22-.78zM14.32 56.7a10.89 10.89 0 0 1-11.09-9.57h22.18a10.89 10.89 0 0 1-11.09 9.57zM27 44H1.66l12.81-28.7zm13-23.44a4.87 4.87 0 0 1-4.74-4.75 4.74 4.74 0 1 1 9.49 0A4.87 4.87 0 0 1 40 20.56zM65.68 56.7a10.89 10.89 0 0 1-11.09-9.57h22.18a10.89 10.89 0 0 1-11.09 9.57zM53 44l12.53-28.7L78.34 44z"/></g></g></g></g></svg>