<svg xmlns="http://www.w3.org/2000/svg" viewBox="0 0 80 75.49"><defs><style>.cls-1{fill:#006ac3}</style></defs><title>wallet</title><g id="Layer_2" data-name="Layer 2"><g id="Basic"><g id="Marketing"><g id="Icons"><g id="icon-wallet_80_" data-name="icon-wallet (80)"><path class="cls-1" d="M71.69 24.07c0-5.37-4.29-9.74-8.75-9.84a9.92 9.92 0 0 1 8.75 9.84z"/><path class="cls-1" d="M77.51 32.82h-3.16v-8.75a12.62 12.62 0 0 0-12.58-12.58H57.1l-2.46-8.7A3.83 3.83 0 0 0 49.87.16l-38.3 11.33H2.49A2.5 2.5 0 0 0 0 14v59a2.5 2.5 0 0 0 2.49 2.49h59.28a12.62 12.62 0 0 0 12.58-12.58v-8.76h3.15a2.5 2.5 0 0 0 2.5-2.49V35.31a2.5 2.5 0 0 0-2.49-2.49zM50.63 2.72a1.16 1.16 0 0 1 1.44.8l2.26 8H21zm-48 11.44h59.14a9.94 9.94 0 0 1 1.16.07c4.46.1 8.75 4.47 8.75 9.84v8.75h-5.16v-8.65A5.2 5.2 0 0 0 61.34 19H2.67zm0 5.83h58.71a4.19 4.19 0 0 1 4.19 4.19v8.65H55.38A10.39 10.39 0 0 0 45 43.18v.62a10.39 10.39 0 0 0 10.38 10.35h10.14v8.65a4.19 4.19 0 0 1-4.18 4.2H2.67zm69 42.92a9.92 9.92 0 0 1-9.91 9.91H2.67V68h58.67a5.2 5.2 0 0 0 5.19-5.19v-8.66h5.17zm5.65-11.42h-22a7.7 7.7 0 0 1-7.69-7.69v-.62a7.7 7.7 0 0 1 7.69-7.69h22z"/><path class="cls-1" d="M62.69 14.22h.25a9.94 9.94 0 0 0-1.16-.07H10.94l1.93.06zM55.62 39.6a4 4 0 1 0 4 4 4 4 0 0 0-4-4zm0 6.92a3 3 0 1 1 3-3 3 3 0 0 1-3 3z"/></g></g></g></g></g></svg>