
<svg width="80px" height="70px" viewBox="0 0 80 70" version="1.1" xmlns="http://www.w3.org/2000/svg" xmlns:xlink="http://www.w3.org/1999/xlink">
    <defs>
        <path d="M35.8683509,11.6843196 L23.3737217,0 L0,22.7953028 L0,69.7674419 L80,69.7674419 L80,11.6843196 L35.8683509,11.6843196 Z M10.8481567,67.2634124 L10.8481567,63.1188119 L37.0026639,63.1188119 L37.0026639,67.2634124 L10.8481567,67.2634124 Z M37.0026639,55.9210223 L10.8481567,55.9210223 L10.8481567,51.4310385 L37.0026639,51.4310385 L37.0026639,55.9210223 Z M10.8481567,57.361271 L37.0026639,57.361271 L37.0026639,61.682017 L10.8481567,61.682017 L10.8481567,57.361271 Z M45.2453381,67.2634124 L39.5119017,67.2634124 L39.5119017,48.8993783 L8.33891897,48.8993783 L8.33891897,67.2599586 L2.50923778,67.2599586 L2.50923778,23.8728989 L23.4080949,3.47801059 L45.2453381,23.8901681 L45.2453381,67.2634124 Z M77.4907622,67.2634124 L47.7511386,67.2634124 L47.7511386,24.598204 L77.4907622,24.598204 L77.4907622,67.2634124 Z M47.0224285,22.0803592 L39.2850391,14.2056182 L77.4907622,14.2056182 L77.4907622,22.0803592 L47.0224285,22.0803592 Z M8.37209302,42.7906977 L8.37209302,29.7674419 L39.0697674,29.7674419 L39.0697674,42.7906977 L8.37209302,42.7906977 Z M20.0161552,40.2575304 L27.0736755,40.2575304 L27.0736755,32.3006091 L20.0161552,32.3006091 L20.0161552,40.2575304 Z M36.602174,40.2575304 L36.602174,32.3006091 L28.4784097,32.3006091 L28.4784097,40.2575304 L36.602174,40.2575304 Z M10.8430713,32.3006091 L10.8430713,40.2575304 L18.6046512,40.2575304 L18.6046512,32.3006091 L10.8430713,32.3006091 Z M72.5581395,29.7674419 L72.5442678,42.7906977 L53.0232558,42.7906977 L53.0232558,29.7674419 L72.5581395,29.7674419 Z M55.5652529,32.3006091 L55.5652529,40.2575304 L62.0745689,40.2575304 L62.0745689,32.3006091 L55.5652529,32.3006091 Z M70.0161424,40.2575304 L70.0161424,32.3006091 L63.5206982,32.3006091 L63.5206982,40.2575304 L70.0161424,40.2575304 Z M72.5581395,48.372093 L72.5581395,61.3953488 L53.0232558,61.3953488 L53.0232558,48.372093 L72.5581395,48.372093 Z M55.8616577,51.1881146 L55.8616577,58.5793272 L62.0802453,58.5793272 L62.0802453,51.1881146 L55.8616577,51.1881146 Z M69.7129227,58.5793272 L69.7163302,51.1881146 L63.50115,51.1881146 L63.50115,58.5793272 L69.7129227,58.5793272 Z M20.4651163,19.0697674 C20.4669291,17.2723825 21.9235453,15.8157663 23.7209302,15.8139535 C25.5190666,15.8139535 26.9767442,17.271631 26.9767442,19.0697674 C26.9767442,20.8679038 25.5190666,22.3255814 23.7209302,22.3255814 C21.9227938,22.3255814 20.4651163,20.8679038 20.4651163,19.0697674 Z M23.7209302,17.1853418 L23.7209302,17.1820531 C22.6796589,17.1838672 21.836503,18.0284946 21.8365046,19.0697674 C21.8365046,20.110507 22.6801907,20.9541931 23.7209302,20.9541931 C24.7616698,20.9541931 25.6053559,20.110507 25.6053559,19.0697674 C25.6053559,18.0290279 24.7616698,17.1853418 23.7209302,17.1853418 Z" id="path-1"></path>
    </defs>
    <g id="Page-1" stroke="none" stroke-width="1" fill="none" fill-rule="evenodd">
        <g id="Design-for-Mortgages-Homepage" transform="translate(-1310.000000, -1633.000000)">
            <g id="Section-4" transform="translate(315.000000, 1523.000000)">
                <g id="Group" transform="translate(899.000000, 105.000000)">
                    <g id="Icons-/-Marketing-/-house-/-80x80" transform="translate(96.000000, 0.000000)">
                        <g id="icn_house" transform="translate(0.000000, 5.000000)">
                            <g id="Colours-/-RBC-Brand-/-Blue">
                                <mask id="mask-2" fill="white">
                                    <use xlink:href="#path-1"></use>
                                </mask>
                                <use id="Mask" fill="#006AC3" fill-rule="nonzero" xlink:href="#path-1"></use>
                                <g mask="url(#mask-2)" fill="#006AC3">
                                    <g transform="translate(0.000000, -5.000000)">
                                        <rect x="0" y="0" width="80" height="80"></rect>
                                    </g>
                                </g>
                            </g>
                        </g>
                    </g>
                </g>
            </g>
        </g>
    </g>
</svg>