<svg xmlns="http://www.w3.org/2000/svg" viewBox="0 0 80 80"><defs><style>.cls-1{fill:#006ac3}</style></defs><title>calculator</title><g id="Layer_2" data-name="Layer 2"><g id="Basic"><g id="Marketing"><g id="Icons"><g id="icon-calculator_80_" data-name="icon-calculator (80)"><path class="cls-1" d="M76.09 0H3.91A3.91 3.91 0 0 0 0 3.91v72.18A3.91 3.91 0 0 0 3.91 80h72.18A3.91 3.91 0 0 0 80 76.09V3.91A3.91 3.91 0 0 0 76.09 0zm1.25 76.09a1.25 1.25 0 0 1-1.25 1.25H3.91a1.25 1.25 0 0 1-1.24-1.25V3.91a1.25 1.25 0 0 1 1.24-1.24h72.18a1.25 1.25 0 0 1 1.25 1.25z"/><path class="cls-1" d="M73.56 39H41V6.44a1 1 0 0 0-2 0V39H6.44a1 1 0 1 0 0 2H39v32.56a1 1 0 0 0 2 0V41h32.56a1 1 0 0 0 0-2z"/><path class="cls-1" d="M12.31 22.18h7.12v7.12a1.33 1.33 0 0 0 2.67 0v-7.12h7.12a1.33 1.33 0 0 0 0-2.67H22.1V12.4a1.33 1.33 0 0 0-2.67 0v7.12h-7.12a1.33 1.33 0 0 0 0 2.67zM48.22 22.1h16.6a1.33 1.33 0 1 0 0-2.67h-16.6a1.33 1.33 0 0 0 0 2.67zM66.66 51.87a1.33 1.33 0 0 0-1.88 0l-5.58 5.58-5.58-5.58a1.33 1.33 0 0 0-1.88 1.88l5.58 5.58-5.58 5.58a1.33 1.33 0 1 0 1.88 1.88l5.58-5.58 5.58 5.58a1.33 1.33 0 0 0 1.88-1.88l-5.58-5.58 5.58-5.58a1.33 1.33 0 0 0 0-1.88zM25.12 51.87l-13 13A1.33 1.33 0 1 0 14 66.8l13-13a1.33 1.33 0 1 0-1.88-1.88z"/><circle class="cls-1" cx="13.89" cy="53.54" r="1.57"/><circle class="cls-1" cx="25.67" cy="65.71" r="1.57"/></g></g></g></g></g></svg>