<?xml version="1.0" encoding="UTF-8"?>
<svg width="80px" height="80px" viewBox="0 0 80 80" version="1.1" xmlns="http://www.w3.org/2000/svg" xmlns:xlink="http://www.w3.org/1999/xlink">
    <!-- Generator: Sketch 55.2 (78181) - https://sketchapp.com -->
    <title>Fill 1</title>
    <desc>Created with Sketch.</desc>
    <g id="Page-1" stroke="none" stroke-width="1" fill="none" fill-rule="evenodd">
        <g id="Mortgage_1" transform="translate(-1310.000000, -1807.000000)" fill="#006AC3">
            <g id="Section-3" transform="translate(0.000000, 1642.000000)">
                <g id="4" transform="translate(1216.000000, 165.000000)">
                    <path d="M102.545455,77.0445455 L124.909091,77.0445455 L124.909091,40 L102.545455,40 L102.545455,77.0445455 Z M128.545455,77.0445455 L139.454545,77.0445455 L139.454545,40 L128.545455,40 L128.545455,77.0445455 Z M143.090909,76.9690909 L165.425455,76.9690909 L165.425455,40 L143.090909,40 L143.090909,76.9690909 Z M97.18,37.0645455 L124.909091,37.0645455 L124.909091,23.0827273 L97.18,23.0827273 L97.18,37.0645455 Z M128.545455,36.9890909 L139.454545,36.9890909 L139.454545,23.0827273 L128.545455,23.0827273 L128.545455,36.9890909 Z M143.090909,36.3636364 L170.363636,36.3636364 L170.363636,23.0827273 L143.090909,23.0827273 L143.090909,36.3636364 Z M143.367273,4.90272727 C139.175455,4.90272727 135.818182,8.26 135.818182,12.4518182 L135.818182,20 L143.367273,20 C147.558182,20 150.914545,16.6427273 150.914545,12.4518182 C150.914545,8.26 147.558182,4.90272727 143.367273,4.90272727 L143.367273,4.90272727 Z M123.825455,3.28727273 C119.189091,3.28727273 115.469091,7.00727273 115.469091,11.6436364 C115.469091,16.2809091 119.189091,20 123.825455,20 L132.181818,20 L132.181818,11.6436364 C132.181818,7.00727273 128.462727,3.28727273 123.825455,3.28727273 L123.825455,3.28727273 Z M124,0 C128.472727,0 132.390909,2.51 134.398182,6.19272727 C136.392727,3.54909091 139.540909,1.81818182 143.090909,1.81818182 C149.094545,1.81818182 154,6.72363636 154,12.7272727 C154,15.5163636 152.922727,18.0663636 151.187273,20 L172.181818,20 C173.133636,20 174,20.8663636 174,21.8181818 L174,38.1818182 C174,39.1336364 173.133636,40 172.181818,40 L168.545455,40 L168.545455,78.1818182 C168.545455,79.1336364 167.679091,80 166.727273,80 L101.272727,80 C100.320909,80 99.4545455,79.1336364 99.4545455,78.1818182 L99.4545455,40 L95.8181818,40 C94.8663636,40 94,39.1336364 94,38.1818182 L94,21.8181818 C94,20.8663636 94.8663636,20 95.8181818,20 L115.477273,20 C113.435455,17.8736364 112.181818,14.9836364 112.181818,11.8181818 C112.181818,5.31272727 117.494545,0 124,0 L124,0 Z" id="Fill-1"></path>
                </g>
            </g>
        </g>
    </g>
</svg>