<svg xmlns="http://www.w3.org/2000/svg" viewBox="0 0 80 63.75"><defs><style>.cls-1{fill:#006ac3}</style></defs><title>credit_cards</title><g id="Layer_2" data-name="Layer 2"><g id="Basic"><g id="Marketing"><g id="Icons"><g id="icon-credit-cards_80_" data-name="icon-credit-cards (80)"><path class="cls-1" d="M76.88 0H16.25a3.13 3.13 0 0 0-3.12 3.13v15.62h-10A3.13 3.13 0 0 0 0 21.88v38.75a3.12 3.12 0 0 0 3.13 3.13h60.62a3.12 3.12 0 0 0 3.13-3.12V45h10A3.13 3.13 0 0 0 80 41.88V3.13A3.13 3.13 0 0 0 76.88 0zM63.75 60.63H3.13V38h60.62zm0-23.62H3.13v-7.14h60.62zm0-8.13H3.13v-7h60.62zm13.13 13h-10v-20a3.13 3.13 0 0 0-3.12-3.12H16.25V3.13h60.63z"/><path class="cls-1" d="M11.56 53.44h19.38a1.56 1.56 0 0 0 0-3.12H11.56a1.56 1.56 0 0 0 0 3.13zM51.56 53.44h7.5a1.56 1.56 0 0 0 0-3.12h-7.5a1.56 1.56 0 0 0 0 3.13z"/></g></g></g></g></g></svg>