<svg viewBox="0 0 42 20" xmlns="http://www.w3.org/2000/svg"><title>icon-flag-US</title><g fill-rule="nonzero" fill="none"><path fill="#FFF" d="M0 0h42v20H0z"/><path fill="#B22234" d="M0 0h42v1.54H0zM0 3.08h42v1.54H0zM0 6.15h42v1.54H0zM0 9.23h42v1.54H0zM0 12.31h42v1.54H0zM0 15.38h42v1.54H0zM0 18.46h42V20H0z"/><path fill="#3C3B6E" d="M0 0h16.8v10.77H0z"/><g fill="#FFF"><path d="M1.62 1.18l-.58.38.22-.61.36.23z"/><path d="M1.37 1.25L.79.87h.71z"/><path d="M1.22 1.06l.22-.61.22.61z"/><path d="M1.37.87h.71l-.58.38z"/><path d="M1.62.95l.22.61-.58-.38.36-.23z"/></g><g fill="#FFF"><path d="M4.4 1.18l-.58.38.22-.61.36.23z"/><path d="M4.15 1.25L3.58.87h.71z"/><path d="M4 1.06l.22-.61.22.61z"/><path d="M4.15.87h.72l-.58.38z"/><path d="M4.4.95l.22.61-.58-.38.36-.23z"/></g><g fill="#FFF"><path d="M7.19 1.18l-.58.38.22-.61.36.23z"/><path d="M6.94 1.25L6.36.87h.72z"/><path d="M6.79 1.06l.22-.61.22.61h-.44z"/><path d="M6.94.87h.72l-.58.38z"/><path d="M7.19.95l.22.61-.58-.38.36-.23z"/></g><g fill="#FFF"><path d="M9.97 1.18l-.58.38.22-.61.36.23z"/><path d="M9.72 1.25L9.14.87h.72z"/><path d="M9.57 1.06l.22-.61.22.61h-.44z"/><path d="M9.72.87h.72l-.58.38z"/><path d="M9.97.95l.22.61-.58-.38.36-.23z"/></g><g fill="#FFF"><path d="M12.76 1.18l-.58.38.22-.61.36.23z"/><path d="M12.51 1.25l-.58-.38h.72z"/><path d="M12.36 1.06l.22-.61.22.61h-.44z"/><path d="M12.51.87h.71l-.57.38-.14-.38z"/><path d="M12.76.95l.22.61-.58-.38.36-.23z"/></g><g fill="#FFF"><path d="M15.54 1.18l-.58.38.22-.61.36.23z"/><path d="M15.29 1.25l-.57-.38h.71z"/><path d="M15.14 1.06l.22-.61.22.61h-.44z"/><path d="M15.29.87h.72l-.58.38-.14-.38z"/><path d="M15.54.95l.22.61-.58-.38.36-.23z"/></g><g fill="#FFF"><path d="M3.01 2.26l-.58.38.22-.61z"/><path d="M2.76 2.33l-.58-.38h.72l-.14.38z"/><path d="M2.61 2.15l.22-.62.22.62h-.44z"/><path d="M2.76 1.95h.72l-.58.38-.14-.38z"/><path d="M3.01 2.03l.22.61-.58-.38z"/></g><g fill="#FFF"><path d="M5.79 2.26l-.58.38.23-.61z"/><path d="M5.55 2.33l-.58-.38h.71z"/><path d="M5.39 2.15l.23-.62.22.62z"/><path d="M5.55 1.95h.71l-.58.38-.13-.38z"/><path d="M5.79 2.03l.22.61-.57-.38.35-.23z"/></g><g fill="#FFF"><path d="M8.58 2.26L8 2.64l.22-.61.36.23z"/><path d="M8.33 2.33l-.58-.38h.72z"/><path d="M8.18 2.15l.22-.62.22.62h-.44z"/><path d="M8.33 1.95h.72l-.58.38-.14-.38z"/><path d="M8.58 2.03l.22.61-.58-.38z"/></g><g fill="#FFF"><path d="M11.36 2.26l-.57.38.22-.61z"/><path d="M11.12 2.33l-.58-.38h.71z"/><path d="M10.96 2.15l.23-.62.22.62h-.45z"/><path d="M11.12 1.95h.71l-.58.38-.13-.38z"/><path d="M11.36 2.03l.23.61-.58-.38z"/></g><g fill="#FFF"><path d="M14.15 2.26l-.58.38.22-.61z"/><path d="M13.9 2.33l-.58-.38h.72z"/><path d="M13.75 2.15l.22-.62.22.62h-.44z"/><path d="M13.9 1.95h.72l-.58.38-.14-.38z"/><path d="M14.15 2.03l.22.61-.58-.38z"/></g><g fill="#FFF"><path d="M1.62 3.34l-.58.38.22-.61z"/><path d="M1.37 3.42l-.58-.39h.71z"/><path d="M1.22 3.23l.22-.62.22.62z"/><path d="M1.37 3.03h.71l-.58.39z"/><path d="M1.62 3.11l.22.61-.58-.38z"/></g><g fill="#FFF"><path d="M4.4 3.34l-.58.38.22-.61z"/><path d="M4.15 3.42l-.57-.39h.71l-.14.39z"/><path d="M4 3.23l.22-.62.22.62z"/><path d="M4.15 3.03h.72l-.58.39z"/><path d="M4.4 3.11l.22.61-.58-.38z"/></g><g fill="#FFF"><path d="M7.19 3.34l-.58.38.22-.61z"/><path d="M6.94 3.42l-.58-.39h.72z"/><path d="M6.79 3.23l.22-.62.22.62h-.44z"/><path d="M6.94 3.03h.72l-.58.39z"/><path d="M7.19 3.11l.22.61-.58-.38z"/></g><g fill="#FFF"><path d="M9.97 3.34l-.58.38.22-.61z"/><path d="M9.72 3.42l-.58-.39h.72z"/><path d="M9.57 3.23l.22-.62.22.62h-.44z"/><path d="M9.72 3.03h.72l-.58.39z"/><path d="M9.97 3.11l.22.61-.58-.38z"/></g><g fill="#FFF"><path d="M12.76 3.34l-.58.38.22-.61z"/><path d="M12.51 3.42l-.58-.39h.72z"/><path d="M12.36 3.23l.22-.62.22.62h-.44z"/><path d="M12.51 3.03h.71l-.57.39-.14-.39z"/><path d="M12.76 3.11l.22.61-.58-.38z"/></g><g fill="#FFF"><path d="M15.54 3.34l-.58.38.22-.61z"/><path d="M15.29 3.42l-.57-.39h.71z"/><path d="M15.14 3.23l.22-.62.22.62h-.44z"/><path d="M15.29 3.03h.72l-.58.39-.14-.39z"/><path d="M15.54 3.11l.22.61-.58-.38z"/></g><g fill="#FFF"><path d="M3.01 4.26l-.58.38.22-.61z"/><path d="M2.76 4.33l-.58-.38h.72l-.14.38z"/><path d="M2.61 4.15l.22-.62.22.62h-.44z"/><path d="M2.76 3.95h.72l-.58.38-.14-.38z"/><path d="M3.01 4.03l.22.61-.58-.38z"/></g><g fill="#FFF"><path d="M5.79 4.26l-.58.38.23-.61z"/><path d="M5.55 4.33l-.58-.38h.71z"/><path d="M5.39 4.15l.23-.62.22.62z"/><path d="M5.55 3.95h.71l-.58.38-.13-.38z"/><path d="M5.79 4.03l.22.61-.57-.38.35-.23z"/></g><g fill="#FFF"><path d="M8.58 4.26L8 4.64l.22-.61.36.23z"/><path d="M8.33 4.33l-.58-.38h.72z"/><path d="M8.18 4.15l.22-.62.22.62h-.44z"/><path d="M8.33 3.95h.72l-.58.38-.14-.38z"/><path d="M8.58 4.03l.22.61-.58-.38z"/></g><g fill="#FFF"><path d="M11.36 4.26l-.57.38.22-.61z"/><path d="M11.12 4.33l-.58-.38h.71z"/><path d="M10.96 4.15l.23-.62.22.62h-.45z"/><path d="M11.12 3.95h.71l-.58.38-.13-.38z"/><path d="M11.36 4.03l.23.61-.58-.38z"/></g><g fill="#FFF"><path d="M14.15 4.26l-.58.38.22-.61z"/><path d="M13.9 4.33l-.58-.38h.72z"/><path d="M13.75 4.15l.22-.62.22.62h-.44z"/><path d="M13.9 3.95h.72l-.58.38-.14-.38z"/><path d="M14.15 4.03l.22.61-.58-.38z"/></g><g fill="#FFF"><path d="M1.62 5.34l-.58.38.22-.61z"/><path d="M1.37 5.42l-.58-.39h.71z"/><path d="M1.22 5.23l.22-.62.22.62z"/><path d="M1.37 5.03h.71l-.58.39z"/><path d="M1.62 5.11l.22.61-.58-.38z"/></g><g fill="#FFF"><path d="M4.4 5.34l-.58.38.22-.61z"/><path d="M4.15 5.42l-.57-.39h.71l-.14.39z"/><path d="M4 5.23l.22-.62.22.62z"/><path d="M4.15 5.03h.72l-.58.39z"/><path d="M4.4 5.11l.22.61-.58-.38z"/></g><g fill="#FFF"><path d="M7.19 5.34l-.58.38.22-.61z"/><path d="M6.94 5.42l-.58-.39h.72z"/><path d="M6.79 5.23l.22-.62.22.62h-.44z"/><path d="M6.94 5.03h.72l-.58.39z"/><path d="M7.19 5.11l.22.61-.58-.38z"/></g><g fill="#FFF"><path d="M9.97 5.34l-.58.38.22-.61z"/><path d="M9.72 5.42l-.58-.39h.72z"/><path d="M9.57 5.23l.22-.62.22.62h-.44z"/><path d="M9.72 5.03h.72l-.58.39z"/><path d="M9.97 5.11l.22.61-.58-.38z"/></g><g fill="#FFF"><path d="M12.76 5.34l-.58.38.22-.61z"/><path d="M12.51 5.42l-.58-.39h.72z"/><path d="M12.36 5.23l.22-.62.22.62h-.44z"/><path d="M12.51 5.03h.71l-.57.39-.14-.39z"/><path d="M12.76 5.11l.22.61-.58-.38z"/></g><g fill="#FFF"><path d="M15.54 5.34l-.58.38.22-.61z"/><path d="M15.29 5.42l-.57-.39h.71z"/><path d="M15.14 5.23l.22-.62.22.62h-.44z"/><path d="M15.29 5.03h.72l-.58.39-.14-.39z"/><path d="M15.54 5.11l.22.61-.58-.38z"/></g><g fill="#FFF"><path d="M3.01 6.26l-.58.38.22-.61z"/><path d="M2.76 6.33l-.58-.38h.72l-.14.38z"/><path d="M2.61 6.15l.22-.62.22.62h-.44z"/><path d="M2.76 5.95h.72l-.58.38-.14-.38z"/><path d="M3.01 6.03l.22.61-.58-.38z"/></g><g fill="#FFF"><path d="M5.79 6.26l-.58.38.23-.61z"/><path d="M5.55 6.33l-.58-.38h.71z"/><path d="M5.39 6.15l.23-.62.22.62z"/><path d="M5.55 5.95h.71l-.58.38-.13-.38z"/><path d="M5.79 6.03l.22.61-.57-.38.35-.23z"/></g><g fill="#FFF"><path d="M8.58 6.26L8 6.64l.22-.61.36.23z"/><path d="M8.33 6.33l-.58-.38h.72z"/><path d="M8.18 6.15l.22-.62.22.62h-.44z"/><path d="M8.33 5.95h.72l-.58.38-.14-.38z"/><path d="M8.58 6.03l.22.61-.58-.38z"/></g><g fill="#FFF"><path d="M11.36 6.26l-.57.38.22-.61z"/><path d="M11.12 6.33l-.58-.38h.71z"/><path d="M10.96 6.15l.23-.62.22.62h-.45z"/><path d="M11.12 5.95h.71l-.58.38-.13-.38z"/><path d="M11.36 6.03l.23.61-.58-.38z"/></g><g fill="#FFF"><path d="M14.15 6.26l-.58.38.22-.61z"/><path d="M13.9 6.33l-.58-.38h.72z"/><path d="M13.75 6.15l.22-.62.22.62h-.44z"/><path d="M13.9 5.95h.72l-.58.38-.14-.38z"/><path d="M14.15 6.03l.22.61-.58-.38z"/></g><g fill="#FFF"><path d="M1.62 7.34l-.58.38.22-.61z"/><path d="M1.37 7.42l-.58-.39h.71z"/><path d="M1.22 7.23l.22-.62.22.62z"/><path d="M1.37 7.03h.71l-.58.39z"/><path d="M1.62 7.11l.22.61-.58-.38z"/></g><g fill="#FFF"><path d="M4.4 7.34l-.58.38.22-.61z"/><path d="M4.15 7.42l-.57-.39h.71l-.14.39z"/><path d="M4 7.23l.22-.62.22.62z"/><path d="M4.15 7.03h.72l-.58.39z"/><path d="M4.4 7.11l.22.61-.58-.38z"/></g><g fill="#FFF"><path d="M7.19 7.34l-.58.38.22-.61z"/><path d="M6.94 7.42l-.58-.39h.72z"/><path d="M6.79 7.23l.22-.62.22.62h-.44z"/><path d="M6.94 7.03h.72l-.58.39z"/><path d="M7.19 7.11l.22.61-.58-.38z"/></g><g fill="#FFF"><path d="M9.97 7.34l-.58.38.22-.61z"/><path d="M9.72 7.42l-.58-.39h.72z"/><path d="M9.57 7.23l.22-.62.22.62h-.44z"/><path d="M9.72 7.03h.72l-.58.39z"/><path d="M9.97 7.11l.22.61-.58-.38z"/></g><g fill="#FFF"><path d="M12.76 7.34l-.58.38.22-.61z"/><path d="M12.51 7.42l-.58-.39h.72z"/><path d="M12.36 7.23l.22-.62.22.62h-.44z"/><path d="M12.51 7.03h.71l-.57.39-.14-.39z"/><path d="M12.76 7.11l.22.61-.58-.38z"/></g><g fill="#FFF"><path d="M15.54 7.34l-.58.38.22-.61z"/><path d="M15.29 7.42l-.57-.39h.71z"/><path d="M15.14 7.23l.22-.62.22.62h-.44z"/><path d="M15.29 7.03h.72l-.58.39-.14-.39z"/><path d="M15.54 7.11l.22.61-.58-.38z"/></g><g fill="#FFF"><path d="M3.01 8.26l-.58.38.22-.61z"/><path d="M2.76 8.33l-.58-.38h.72l-.14.38z"/><path d="M2.61 8.15l.22-.62.22.62h-.44z"/><path d="M2.76 7.95h.72l-.58.38-.14-.38z"/><path d="M3.01 8.03l.22.61-.58-.38z"/></g><g fill="#FFF"><path d="M5.79 8.26l-.58.38.23-.61z"/><path d="M5.55 8.33l-.58-.38h.71z"/><path d="M5.39 8.15l.23-.62.22.62z"/><path d="M5.55 7.95h.71l-.58.38-.13-.38z"/><path d="M5.79 8.03l.22.61-.57-.38.35-.23z"/></g><g fill="#FFF"><path d="M8.58 8.26L8 8.64l.22-.61.36.23z"/><path d="M8.33 8.33l-.58-.38h.72z"/><path d="M8.18 8.15l.22-.62.22.62h-.44z"/><path d="M8.33 7.95h.72l-.58.38-.14-.38z"/><path d="M8.58 8.03l.22.61-.58-.38z"/></g><g fill="#FFF"><path d="M11.36 8.26l-.57.38.22-.61z"/><path d="M11.12 8.33l-.58-.38h.71z"/><path d="M10.96 8.15l.23-.62.22.62h-.45z"/><path d="M11.12 7.95h.71l-.58.38-.13-.38z"/><path d="M11.36 8.03l.23.61-.58-.38z"/></g><g fill="#FFF"><path d="M14.15 8.26l-.58.38.22-.61z"/><path d="M13.9 8.33l-.58-.38h.72z"/><path d="M13.75 8.15l.22-.62.22.62h-.44z"/><path d="M13.9 7.95h.72l-.58.38-.14-.38z"/><path d="M14.15 8.03l.22.61-.58-.38z"/></g><g fill="#FFF"><path d="M1.62 9.34l-.58.38.22-.61z"/><path d="M1.37 9.42l-.58-.39h.71z"/><path d="M1.22 9.23l.22-.62.22.62z"/><path d="M1.37 9.03h.71l-.58.39z"/><path d="M1.62 9.11l.22.61-.58-.38z"/></g><g fill="#FFF"><path d="M4.4 9.34l-.58.38.22-.61z"/><path d="M4.15 9.42l-.57-.39h.71l-.14.39z"/><path d="M4 9.23l.22-.62.22.62z"/><path d="M4.15 9.03h.72l-.58.39z"/><path d="M4.4 9.11l.22.61-.58-.38z"/></g><g fill="#FFF"><path d="M7.19 9.34l-.58.38.22-.61z"/><path d="M6.94 9.42l-.58-.39h.72z"/><path d="M6.79 9.23l.22-.62.22.62h-.44z"/><path d="M6.94 9.03h.72l-.58.39z"/><path d="M7.19 9.11l.22.61-.58-.38z"/></g><g fill="#FFF"><path d="M9.97 9.34l-.58.38.22-.61z"/><path d="M9.72 9.42l-.58-.39h.72z"/><path d="M9.57 9.23l.22-.62.22.62h-.44z"/><path d="M9.72 9.03h.72l-.58.39z"/><path d="M9.97 9.11l.22.61-.58-.38z"/></g><g fill="#FFF"><path d="M12.76 9.34l-.58.38.22-.61z"/><path d="M12.51 9.42l-.58-.39h.72z"/><path d="M12.36 9.23l.22-.62.22.62h-.44z"/><path d="M12.51 9.03h.71l-.57.39-.14-.39z"/><path d="M12.76 9.11l.22.61-.58-.38z"/></g><g fill="#FFF"><path d="M15.54 9.34l-.58.38.22-.61z"/><path d="M15.29 9.42l-.57-.39h.71z"/><path d="M15.14 9.23l.22-.62.22.62h-.44z"/><path d="M15.29 9.03h.72l-.58.39-.14-.39z"/><path d="M15.54 9.11l.22.61-.58-.38z"/></g></g></svg>