<svg xmlns="http://www.w3.org/2000/svg" viewBox="0 0 20 20"><defs><style>.cls-1{fill:#fff}.cls-2{mask:url(#mask)}.cls-3{fill:#006ac3}</style><mask id="mask" x="0" y="0" width="20" height="20" maskUnits="userSpaceOnUse"><g id="mask-2"><path id="path-1" class="cls-1" d="M0 20h20V0H0v20z"/></g></mask></defs><title>call_20</title><g id="Layer_2" data-name="Layer 2"><g id="Layer_1-2" data-name="Layer 1"><g id="call_20x20"><g class="cls-2" id="Page-1"><path id="Fill-1" class="cls-3" d="M19 17l-.32.32-3.7-3.7.33-.33a.82.82 0 0 1 .52-.28c.1 0 .26 0 .52.28l1.83 1.83c.29.29.56.56.82.84a.67.67 0 0 1 .25.48.89.89 0 0 1-.25.56zm-1.7 1.62a1.92 1.92 0 0 1-1.25.59 6.9 6.9 0 0 1-2.92-.54 18.93 18.93 0 0 1-5.72-3.44 21.06 21.06 0 0 1-4.55-5.31 18.26 18.26 0 0 1-1.53-3.09 6.73 6.73 0 0 1-.54-2.89 1.91 1.91 0 0 1 .59-1.24l1.16-1.15 3.7 3.7-.19.19c-.31.31-.6.6-.91.88a1.31 1.31 0 0 0-.35 1.44 11.18 11.18 0 0 0 1.65 2.66c.39.48.78.89 1.17 1.29l.17.18a23.67 23.67 0 0 0 1.72 1.64 11.42 11.42 0 0 0 2.68 1.65 1.33 1.33 0 0 0 1.45-.35c.27-.3.55-.59.86-.88l.23-.23 3.7 3.7zM3.57.78a.68.68 0 0 1 .48.22c.29.27.57.54.86.84L6.76 3.7c.25.25.28.41.28.51a.82.82 0 0 1-.28.51l-.35.35-3.7-3.7L3 1a.89.89 0 0 1 .57-.22zm15.94 14.61c-.27-.29-.54-.57-.83-.85l-1.83-1.84a1.5 1.5 0 0 0-1.07-.51 1.56 1.56 0 0 0-1.07.51l-.42.42-.32.31c-.31.3-.6.59-.88.91a.54.54 0 0 1-.63.16A10.69 10.69 0 0 1 10 13c-.62-.49-1.63-1.56-1.64-1.57l-.17-.18L7 10a10.44 10.44 0 0 1-1.5-2.49.53.53 0 0 1 .16-.62C6 6.6 6.29 6.3 6.6 6l.29-.29.42-.42a1.53 1.53 0 0 0 .51-1.07 1.49 1.49 0 0 0-.51-1.07L5.49 1.33C5.2 1 4.92.76 4.62.49a1.44 1.44 0 0 0-1-.49 1.61 1.61 0 0 0-1.11.47L.83 2.14A2.7 2.7 0 0 0 0 3.88 7.44 7.44 0 0 0 .6 7.1a19 19 0 0 0 1.59 3.22 21.85 21.85 0 0 0 4.72 5.51 19.69 19.69 0 0 0 6 3.58 8.25 8.25 0 0 0 2.84.6h.41a2.71 2.71 0 0 0 1.74-.81l1.66-1.66a1.61 1.61 0 0 0 .44-1.1 1.44 1.44 0 0 0-.49-1z"/></g></g></g></g></svg>