<svg xmlns="http://www.w3.org/2000/svg" viewBox="0 0 50.24 80"><defs><style>.cls-1{fill:#006ac3}</style></defs><title>buy_online</title><g id="Layer_2" data-name="Layer 2"><g id="Basic"><g id="Marketing"><g id="Icons"><path id="icon-buy-online_80_" data-name="icon-buy-online (80)" class="cls-1" d="M49.34.86C46.29-.21 43.86-.28 41.92.65c-2.53 1.22-3.41 3.79-4 5.49L34 17.24A20.69 20.69 0 0 0 8.94 30.35l-7.75 22a20.76 20.76 0 1 0 39.16 13.8l7.75-22a20.75 20.75 0 0 0-11.54-26L40.48 7c.52-1.41 1.1-3.18 2.62-3.91 1.24-.6 3-.49 5.34.32a1.35 1.35 0 1 0 .9-2.55zM28.52 19.18a18 18 0 0 1 5.53.89l-1.58 4.49a4.13 4.13 0 0 0-4.89 2.69l-2.81 8a4.2 4.2 0 0 0 2.12 5.16L25.63 44 9.06 38.12l2.42-6.88a18.09 18.09 0 0 1 17.04-12.06zm-.85 20.47a3.2 3.2 0 0 1-2-4.08l2.81-8a3.2 3.2 0 0 1 6 2.13l-2.81 8a3.19 3.19 0 0 1-4.08 2zM37.8 65.24a18.06 18.06 0 0 1-34.07-12l5-14.15 34.07 12zm7-35.79a17.94 17.94 0 0 1 .74 13.8l-2.42 6.88-16.54-5.83 1.25-3.55A4.14 4.14 0 0 0 32.7 38l2.81-8a4.2 4.2 0 0 0-2.1-5.15L35 20.41a17.92 17.92 0 0 1 9.81 9.04z"/></g></g></g></g></svg>