
<svg width="80px" height="86px" viewBox="0 0 80 86" version="1.1" xmlns="http://www.w3.org/2000/svg" xmlns:xlink="http://www.w3.org/1999/xlink">
    <g id="Page-1" stroke="none" stroke-width="1" fill="none" fill-rule="evenodd">
        <g id="Design-for-Mortgages-Homepage" transform="translate(-711.000000, -1625.000000)" fill="#006AC3">
            <g id="Section-4" transform="translate(315.000000, 1523.000000)">
                <g id="Group" transform="translate(300.000000, 102.000000)">
                    <g id="Group-3" transform="translate(96.000000, 0.295888)">
                        <path d="M61.5774375,13.9550234 C64.269879,14.0411773 66.5446616,16.0331505 66.9864007,18.6905418 L67.9041264,24.2132174 C69.6148957,23.2561605 71.2063338,21.960107 72.5529559,20.4221806 C77.2531565,15.0536187 78.1492101,7.82659532 74.5101465,4.64050836 C73.353491,3.62753177 71.7826549,3.09214716 69.9675378,3.09214716 C66.2899458,3.09214716 62.1355646,5.22806689 59.1255311,8.66592642 C57.7789091,10.2035853 56.7041264,11.9528829 55.9803806,13.7744214 L61.5774375,13.9550234 Z M64.1847953,48.9270635 L67.261986,45.4124147 C67.7486749,44.8566957 67.9584408,44.1198395 67.8372368,43.39101 L63.8193104,19.217097 C63.7262,18.6578997 63.44018,18.1441873 63.0136917,17.7709431 C62.5872034,17.397699 62.0405813,17.1823144 61.4741599,17.1635853 L55.097705,16.9586355 C54.642588,19.8718127 55.2384408,22.4342207 56.7680729,24.0617793 C57.300782,24.6284682 57.3205813,25.491612 56.8143606,26.0700736 C56.5310161,26.394087 56.1211164,26.5803077 55.6903472,26.5803077 C55.2857987,26.5803077 54.909879,26.4205753 54.631083,26.1305418 C52.4633238,23.875291 51.4969024,20.5337525 51.922588,16.8564281 L36.9810495,16.3753579 L36.9002468,16.3740201 C36.1928221,16.3740201 35.5196448,16.6798395 35.0532903,17.2125485 L31.9760997,20.7271973 L64.1847953,48.9270635 Z M40.7434575,75.7005753 L62.951083,50.3365619 L30.7423873,22.1361605 L8.5347619,47.500709 L40.7434575,75.7005753 Z M3.81957795,52.8861271 C2.9270027,53.9055251 3.03028029,55.4613779 4.04967829,56.3539532 L32.5607151,81.3163612 C33.0078054,81.7077993 33.5817184,81.9231839 34.1773037,81.9231839 C34.8876716,81.9231839 35.5624542,81.6181672 36.0282736,81.0859933 L39.5094776,77.109806 L7.30131708,48.9099398 L3.81957795,52.8861271 Z M34.1773037,85.1354916 C32.8044609,85.1354916 31.4792435,84.6370301 30.4456649,83.7318796 L1.93462812,58.769204 C0.795631463,57.7722809 0.112822098,56.3908763 0.0127552088,54.8802408 C-0.0875792394,53.3696054 0.406601363,51.9100736 1.40405956,50.7710769 L32.6377719,15.0974983 C33.7138923,13.8683344 35.2684074,13.1630502 36.9021198,13.1630502 C36.9628555,13.1630502 37.0235913,13.1641204 37.0845947,13.1662609 L52.6190428,13.6665953 C53.4329559,11.1365619 54.8384408,8.68813378 56.7100127,6.55087625 C60.3011833,2.44893645 65.1573706,-2.6755853e-05 69.6991766,-2.6755853e-05 C72.3303472,-2.6755853e-05 74.6709492,0.831277592 76.4678723,2.4047893 C78.9414509,4.57040803 80.1280729,7.88305017 79.8094107,11.731612 C79.497705,15.4902742 77.7786415,19.3275987 74.9684743,22.5372308 C73.0990428,24.6726154 70.8579726,26.3892709 68.4555646,27.530408 L71.0043271,42.8644548 C71.2836582,44.5457926 70.80018,46.245592 69.6772368,47.528 L38.443792,83.201311 C37.3676716,84.4304749 35.8126214,85.1354916 34.1778388,85.1354916 L34.1773037,85.1354916 Z" id="Fill-1"></path>
                    </g>
                </g>
            </g>
        </g>
    </g>
</svg>