<svg xmlns="http://www.w3.org/2000/svg" viewBox="0 0 40 40"><defs><style>.cls-1{fill:#006ac3}</style></defs><title>brach_locator</title><g id="Layer_2" data-name="Layer 2"><g id="Basic"><g id="Contact_Us" data-name="Contact Us"><g id="Icons"><g id="icon-locator_40_" data-name="icon-locator (40)"><path class="cls-1" d="M39.83 37.73l-4.48-8.84A1.56 1.56 0 0 0 34 28h-8.59l4.76-6.86A13 13 0 0 0 20.94 0H20v1.56h.83a11.46 11.46 0 0 1 8.12 18.64l-.11.16L20 33.09l-8.84-12.73-.11-.16A11.34 11.34 0 0 1 8.53 13 11.48 11.48 0 0 1 20 1.56V0A13 13 0 0 0 9.83 21.17L14.59 28H6a1.56 1.56 0 0 0-1.39.86L.17 37.73A1.56 1.56 0 0 0 1.56 40h36.88a1.56 1.56 0 0 0 1.39-2.27zm-38.27.71L6 29.59h5.69l-2.91 8.85zm7.75 0l2.95-8.84h3.41l3 4.39a1.56 1.56 0 0 0 2.57 0l3-4.39h3.41l2.95 8.84zm21.91 0l-2.95-8.84H34l4.48 8.84z"/><path class="cls-1" d="M14.8 13A5.2 5.2 0 1 0 20 7.83 5.2 5.2 0 0 0 14.8 13zm9.41 0A4.2 4.2 0 1 1 20 8.83 4.21 4.21 0 0 1 24.2 13z"/></g></g></g></g></g></svg>