<?xml version="1.0" encoding="UTF-8"?>
<svg width="24px" height="41px" viewBox="0 0 24 41" version="1.1" xmlns="http://www.w3.org/2000/svg" xmlns:xlink="http://www.w3.org/1999/xlink">
    <!-- Generator: Sketch 52.3 (67297) - http://www.bohemiancoding.com/sketch -->
    <title>Merchandise_Gift</title>
    <desc>Created with Sketch.</desc>
    <g id="FINAL" stroke="none" stroke-width="1" fill="none" fill-rule="evenodd">
        <g id="Icons-/-Marketing-/-mobile-/-40x40-" transform="translate(-8.000000, 0.000000)" fill="#006AC3">
            <g id="mobile" transform="translate(8.000000, 0.500000)">
                <path d="M11.875,33.4384375 C11.1130196,33.4384375 10.4953125,34.0561446 10.4953125,34.818125 C10.4953125,35.5801054 11.1130196,36.1978125 11.875,36.1978125 C12.6369804,36.1978125 13.2546875,35.5801054 13.2546875,34.818125 C13.2546875,34.0561446 12.6369804,33.4384375 11.875,33.4384375 Z M11.875,35.6978125 C11.3893762,35.6972958 10.9958292,35.3037488 10.9953125,34.818125 C10.9960014,34.3326232 11.389498,33.9392664 11.875,33.93875 C12.360502,33.9392664 12.7539986,34.3326232 12.7546875,34.818125 C12.7541708,35.3037488 12.3606238,35.6972958 11.875,35.6978125 Z M10,4.603125 L13.75,4.603125 C13.8880712,4.603125 14,4.49119619 14,4.353125 C14,4.21505381 13.8880712,4.103125 13.75,4.103125 L10,4.103125 C9.86192881,4.103125 9.75,4.21505381 9.75,4.353125 C9.75,4.49119619 9.86192881,4.603125 10,4.603125 Z" id="Shape" fill-rule="nonzero"></path>
                <path d="M22.1875,0 L1.5625,0 C0.699555078,-5.28401368e-17 0,0.699555078 0,1.5625 L0,38.4375 C0,39.3004449 0.699555078,40 1.5625,40 L22.1875,40 C23.0504449,40 23.75,39.3004449 23.75,38.4375 L23.75,1.5625 C23.75,0.699555078 23.0504449,5.28401368e-17 22.1875,0 Z M1.5625,7.4846875 L22.1875,7.4846875 L22.1875,30.8440625 L1.5625,30.8440625 L1.5625,7.484375 L1.5625,7.4846875 Z M22.1875,1.5625 L22.1875,6.985 L1.5625,6.985 L1.5625,1.5625 L22.1875,1.5625 Z M1.5625,38.4375 L1.5625,31.34375 L22.1875,31.34375 L22.1875,38.4375 L1.5625,38.4375 Z" id="Shape" fill-rule="nonzero"></path>
            </g>
        </g>
    </g>
</svg>