<?xml version="1.0" encoding="UTF-8"?>
<svg width="64px" height="64px" viewBox="0 0 64 64" version="1.1" xmlns="http://www.w3.org/2000/svg" xmlns:xlink="http://www.w3.org/1999/xlink">
    <!-- Generator: Sketch 52.3 (67297) - http://www.bohemiancoding.com/sketch -->
    <title>Packages</title>
    <desc>Created with Sketch.</desc>
    <g id="Page-1" stroke="none" stroke-width="1" fill="none" fill-rule="evenodd">
        <g id="Packages" fill="#006AC3" fill-rule="nonzero">
            <path d="M53.7960805,19.26789 C53.7500805,19.29439 53.7050805,19.32389 53.6620805,19.35689 C53.6495805,19.36639 53.6400805,19.37839 53.6280805,19.38839 L52.3810805,20.00489 C52.2915805,19.97739 52.2040805,19.94639 52.1135805,19.92139 C51.9200805,18.98789 51.5555805,18.00039 51.0040805,16.94389 C51.0770805,16.77139 51.1710805,16.59139 51.2900805,16.44289 C51.3225805,16.42089 51.3580805,16.40339 51.3890805,16.37789 C51.7465805,16.08689 52.1265805,15.82339 52.5205805,15.59289 C55.1430805,14.05739 58.2185805,14.00089 60.5195805,15.32389 L53.7960805,19.26789 Z M57.1645805,24.48939 C58.5570805,26.57839 59.3480805,30.32489 57.5000805,34.52139 L50.8075805,25.82239 L48.9800805,23.61439 C48.8900805,23.50589 48.7815805,23.42389 48.6670805,23.35489 C48.6510805,23.32989 48.6345805,23.30439 48.6195805,23.28039 L51.9115805,20.70839 C51.9145805,20.70639 51.9155805,20.70289 51.9185805,20.70039 C52.6505805,20.90539 53.3460805,21.18789 54.0080805,21.54239 C55.6100805,22.41389 56.3415805,23.33039 57.1645805,24.48939 Z M43.9330805,31.27439 L45.5740805,27.61289 L47.7845805,26.08939 L48.4400805,26.88139 L46.1905805,35.77389 L43.9330805,31.27439 Z M45.7490805,37.51939 L41.1345805,37.51939 L43.5115805,32.21489 L45.8915805,36.95789 L45.7490805,37.51939 Z M44.2760805,43.34339 L40.7060805,38.47539 L40.7765805,38.31789 L45.5470805,38.31789 L44.2760805,43.34339 Z M43.8525805,45.01789 L37.7745805,45.01789 L40.3305805,39.31389 L44.0220805,44.34689 L43.8525805,45.01789 Z M41.7770805,53.22239 C41.7755805,53.22789 41.7760805,53.23339 41.7745805,53.23839 C40.9190805,53.10439 40.0510805,52.99439 39.1700805,52.91239 C39.1535805,52.83739 39.1310805,52.76289 39.0995805,52.68989 L36.7575805,47.24889 C36.7845805,47.20389 36.8140805,47.16089 36.8360805,47.11189 L37.4165805,45.81639 L43.6505805,45.81639 L41.7770805,53.22239 Z M35.1605805,52.72239 C32.6510805,52.72239 30.2035805,52.93739 27.8630805,53.34539 L33.4525805,45.89289 L36.4035805,52.74839 C35.9900805,52.73689 35.5775805,52.72239 35.1605805,52.72239 Z M25.5980805,45.81639 L32.5120805,45.81639 L27.3285805,52.72789 L25.5980805,45.81639 Z M23.7205805,38.31789 L29.5220805,38.31789 L25.1970805,44.21489 L23.7205805,38.31789 Z M20.8030805,26.66739 L25.5655805,32.15689 L23.3535805,36.85339 L20.8030805,26.66739 Z M7.0315805,36.72939 C4.3750805,32.57289 4.5065805,26.96239 7.5240805,23.07089 C9.3565805,20.83539 10.8815805,19.52989 14.0515805,18.65439 C14.1560805,18.64239 14.2545805,18.61389 14.3495805,18.57789 C16.5850805,18.29689 18.4595805,18.18939 20.2165805,18.38989 L18.0175805,21.55339 C17.9460805,21.61539 17.8810805,21.68589 17.8245805,21.76439 L7.0315805,36.72939 Z M3.4290805,11.79739 C5.8195805,9.86189 9.5735805,9.23789 12.8690805,10.38939 C14.4155805,10.88789 16.5925805,12.45539 18.1045805,14.14339 C18.7390805,15.05289 19.6760805,16.48089 20.1385805,17.58789 C19.3965805,17.51089 18.6365805,17.48339 17.8450805,17.49889 L14.4870805,16.31089 C14.4515805,16.29189 14.4175805,16.27089 14.3790805,16.25539 L3.4290805,11.79739 Z M20.2825805,13.96889 C20.3350805,13.85739 20.3735805,13.73739 20.3910805,13.61139 C20.7125805,11.32389 21.0155805,9.16389 22.6420805,7.10189 C25.5185805,3.45539 29.7995805,1.83039 33.7150805,2.76139 L27.7725805,10.29839 C27.7520805,10.32389 27.7365805,10.35189 27.7185805,10.37839 L25.6650805,12.82239 C23.9270805,13.79939 22.3395805,15.23089 20.8260805,17.16739 C20.6640805,16.79739 20.4625805,16.40389 20.2365805,16.00439 L20.2825805,13.96889 Z M31.9135805,11.95889 L31.9235805,11.95889 C33.7200805,11.95889 35.4275805,12.33139 36.9490805,12.99789 L41.2080805,18.14339 L26.7320805,18.15389 C26.6975805,18.15439 26.6650805,18.16139 26.6315805,18.16439 L23.1870805,18.23489 C22.5805805,18.03489 21.9750805,17.87539 21.3635805,17.76039 C21.3725805,17.75089 21.3850805,17.74689 21.3935805,17.73639 C23.9270805,14.46589 26.6570805,12.69289 29.9845805,12.15689 C30.0465805,12.14689 30.1005805,12.12089 30.1485805,12.08689 C30.7315805,12.00539 31.3215805,11.95889 31.9135805,11.95889 Z M32.6710805,37.75789 C35.8830805,32.92289 35.2320805,26.22339 31.0595805,21.41189 C30.8315805,21.14939 30.5955805,20.89539 30.3525805,20.65089 L39.8120805,20.64389 C36.3885805,23.55039 34.9850805,28.07339 36.4040805,32.02639 C36.5350805,32.39139 36.8280805,32.67489 37.1970805,32.79389 C37.5665805,32.91339 37.9700805,32.85389 38.2895805,32.63339 L41.6110805,30.34389 L35.4240805,44.15139 L32.6710805,37.75789 Z M30.3100805,38.59389 L33.0755805,45.01789 L25.5980805,45.01789 L30.3100805,38.59389 Z M29.4820805,36.67089 L29.8475805,37.51939 L23.9225805,37.51939 L26.1375805,32.81639 L29.4820805,36.67089 Z M19.7825805,21.67639 C19.7580805,21.64839 19.7280805,21.62789 19.7020805,21.60239 L19.3390805,21.05139 L21.0155805,18.63939 C21.0430805,18.59989 21.0590805,18.55639 21.0705805,18.51239 C22.7090805,18.80239 24.2845805,19.39539 26.0035805,20.40139 C26.0480805,20.43389 26.0875805,20.47189 26.1355805,20.49839 C27.2695805,21.17689 28.2910805,22.03589 29.1715805,23.04989 C32.2220805,26.56739 33.0200805,31.26789 31.3480805,35.00739 L19.7825805,21.67639 Z M46.3215805,24.06189 L38.3865805,29.53089 C38.1125805,26.72789 39.5320805,23.78939 42.1830805,21.96339 C42.7590805,21.56539 43.3775805,21.24039 44.0240805,20.98389 C46.5585805,20.26839 48.8600805,20.10139 50.9145805,20.47389 L46.3215805,24.06189 Z M48.8480805,15.14289 C49.0920805,15.43839 49.3320805,15.76139 49.5610805,16.10389 C49.5995805,16.16139 49.6455805,16.21189 49.6920805,16.26139 C50.4540805,17.51189 50.9800805,18.66939 51.2525805,19.71939 C49.5175805,19.37539 47.6170805,19.40639 45.5640805,19.80239 C45.5125805,19.59739 45.4460805,19.35189 45.3735805,19.16239 C45.3680805,19.13189 45.3680805,19.10089 45.3600805,19.07089 C44.4890805,15.77939 42.2510805,13.07339 39.2740805,11.37889 C42.6445805,10.73839 46.3565805,12.13039 48.8480805,15.14289 Z M63.6295805,14.57839 C60.5010805,11.47089 55.4130805,11.00189 51.2585805,13.43539 C51.1290805,13.51139 51.0005805,13.58989 50.8730805,13.67139 C50.8400805,13.63089 50.8070805,13.59039 50.7745805,13.55039 C47.0675805,9.06839 41.1075805,7.49589 36.2785805,9.72639 C36.1365805,9.79189 36.0155805,9.88789 35.9100805,9.99739 C34.6420805,9.65289 33.3060805,9.45939 31.9240805,9.45939 C31.8225805,9.45689 31.7170805,9.46039 31.6140805,9.46239 L36.7760805,2.91539 C37.0160805,2.61139 37.1015805,2.21239 37.0065805,1.83639 C36.9115805,1.46039 36.6480805,1.14989 36.2920805,0.99539 C30.9360805,-1.32761 24.6620805,0.50539 20.6795805,5.55439 C19.2945805,7.30989 18.6725805,9.12339 18.3105805,10.85589 C16.7790805,9.53889 15.0510805,8.46639 13.6645805,8.01989 C8.7225805,6.29389 3.0815805,7.76039 0.2525805,11.50639 C0.0185805,11.81589 -0.0584195,12.21689 0.0450805,12.59089 C0.1480805,12.96539 0.4190805,13.27039 0.7785805,13.41689 L10.4445805,17.35189 C8.4320805,18.36439 7.0365805,19.72139 5.5800805,21.49939 C5.5735805,21.50739 5.5665805,21.51589 5.5600805,21.52439 C1.4905805,26.75789 1.7220805,34.55289 6.0995805,39.65639 C6.3375805,39.93389 6.6845805,40.09239 7.0480805,40.09239 C7.0655805,40.09239 7.0830805,40.09189 7.1005805,40.09139 C7.4835805,40.07539 7.8375805,39.88439 8.0620805,39.57389 L18.0055805,25.78639 L25.0565805,53.94589 C19.3940805,55.36989 14.5410805,57.98389 11.2735805,61.51839 C10.8050805,62.02539 10.8360805,62.81589 11.3430805,63.28439 C11.8500805,63.75289 12.6405805,63.72239 13.1090805,63.21539 C17.6665805,58.28489 26.1160805,55.22189 35.1605805,55.22189 C44.2040805,55.22189 52.6555805,58.28639 57.2170805,63.21939 C57.4635805,63.48589 57.7985805,63.62089 58.1350805,63.62089 C58.4385805,63.62089 58.7430805,63.51089 58.9830805,63.28839 C59.4900805,62.81989 59.5210805,62.02889 59.0520805,61.52239 C55.5855805,57.77289 50.3400805,55.05539 44.2350805,53.69889 L50.3880805,29.37489 L56.7130805,37.59789 C56.9505805,37.90639 57.3170805,38.08539 57.7035805,38.08539 C57.7275805,38.08539 57.7520805,38.08489 57.7755805,38.08339 C58.1885805,38.05939 58.5630805,37.83289 58.7755805,37.47839 C61.6675805,32.65689 61.8515805,27.01439 59.2235805,23.07289 C58.5445805,22.11589 57.8625805,21.22789 56.8115805,20.39689 L63.3815805,16.54289 C63.7160805,16.34689 63.9405805,16.00639 63.9890805,15.62189 C64.0375805,15.23689 63.9050805,14.85139 63.6295805,14.57839 Z" id="vacation-128"></path>
        </g>
    </g>
</svg>