<?xml version="1.0" encoding="UTF-8"?>
<svg width="91px" height="80px" viewBox="0 0 91 80" version="1.1" xmlns="http://www.w3.org/2000/svg" xmlns:xlink="http://www.w3.org/1999/xlink">
    <!-- Generator: Sketch 52.3 (67297) - http://www.bohemiancoding.com/sketch -->
    <title>Pay_Card</title>
    <desc>Created with Sketch.</desc>
    <g id="Page-1" stroke="none" stroke-width="1" fill="none" fill-rule="evenodd">
        <g id="Expanded-Section" transform="translate(-2560.000000, -530.000000)" fill="#006AC3" fill-rule="nonzero">
            <g id="4.-Pay-with-Points" transform="translate(2511.000000, 72.000000)">
                <g id="Pay-with-Points" transform="translate(0.000000, 240.000000)">
                    <g id="Shape" transform="translate(49.000000, 218.000000)">
                        <path d="M80.7574168,66.4057 C80.4897915,66.1785286 80.0915598,66.2114929 79.8660434,66.4787929 C76.7144787,70.2037857 72.1227254,72.6116357 67.2669199,73.0824571 C66.9186494,73.1161357 66.6645831,73.4257143 66.6981258,73.7754286 C66.7295272,74.1036429 67.0042896,74.3487286 67.3268683,74.3487286 C67.3468513,74.3487286 67.3675474,74.3480071 67.3882442,74.3465786 C72.5687676,73.8435071 77.4681152,71.2751357 80.8302097,67.3007571 C81.0557262,67.0334571 81.0236131,66.6328643 80.7574168,66.4057 Z M65.3128932,76.1288143 C53.2754296,76.1288143 43.4824561,66.2946214 43.4824561,54.2073714 C43.4824561,42.1201214 53.2754296,32.28665 65.3128932,32.28665 C77.3510735,32.28665 87.1440456,42.1201214 87.1440456,54.2073714 C87.1440456,66.2946214 77.3510735,76.1288143 65.3128932,76.1288143 Z M3.56763367,51.9063 L3.56763367,24.61235 C3.59475309,24.61665 3.61973188,24.6288357 3.64827887,24.6288357 L78.8126686,24.6288357 L78.8126686,32.2759 C74.8867722,29.8307857 70.2629058,28.4140286 65.3128932,28.4140286 C51.9223122,28.4140286 40.8975456,38.7584571 39.7342642,51.9063 L3.56763367,51.9063 Z M3.56763367,14.9659143 L78.8126686,14.9659143 L78.8126686,23.4822429 L3.64827887,23.4822429 C3.61973188,23.4822429 3.59475309,23.4944214 3.56763367,23.4987214 L3.56763367,14.9659143 Z M3.56763367,13.8193214 L3.56763367,3.58238571 L78.8126686,3.58238571 L78.8126686,13.8193214 L3.56763367,13.8193214 Z M82.3803023,34.9531929 L82.3803023,24.0605571 C82.3803023,24.0591214 82.3810132,24.0569714 82.3810132,24.0555357 C82.3810132,24.0533857 82.3803023,24.0519571 82.3803023,24.0505214 L82.3803023,3.31723571 C82.3803023,1.48842143 80.8987227,0 79.0774359,0 L3.30286277,0 C1.48157811,0 0,1.48842143 0,3.31723571 L0,52.17145 C0,54.0002714 1.48157811,55.4886929 3.30286277,55.4886929 L39.6586147,55.4886929 C40.3258957,69.1173929 51.5776099,80 65.3128932,80 C79.4770895,80 91,68.4294357 91,54.2073714 C91,46.5588714 87.6643097,39.6807429 82.3803023,34.9531929 Z M72.2055141,36.4982286 C72.5323747,36.6207714 72.8970572,36.4595357 73.0219547,36.1313214 C73.1468451,35.8038214 72.9834148,35.4369143 72.6572651,35.3115071 C67.632319,33.3837929 62.1591873,33.5385857 57.2455726,35.7443429 C52.3312449,37.9508214 48.568065,41.9452714 46.6497217,46.9902786 C46.5248292,47.3177786 46.6882595,47.6846857 47.0144064,47.8100929 C47.0886282,47.8380429 47.1649907,47.8516571 47.2399264,47.8516571 C47.4947065,47.8516571 47.7344993,47.6968714 47.8308449,47.4431857 C49.6292921,42.7149214 53.1562466,38.9720071 57.7622699,36.9038357 C62.3675787,34.8356714 67.4974357,34.6923429 72.2055141,36.4982286 Z M71.753763,51.2255143 L74.8418054,46.7788786 L77.3496445,51.2255143 L71.753763,51.2255143 Z M66.6959845,65.5636643 L71.022251,52.5326286 L77.1812163,52.5326286 L66.6959845,65.5636643 Z M65.3649907,65.4418429 L61.1450634,52.5326286 L69.6505753,52.5326286 L65.3649907,65.4418429 Z M53.7036308,52.5326286 L59.7755312,52.5326286 L63.9968868,65.4454214 L53.7036308,52.5326286 Z M55.9845188,46.8218714 L59.0454474,51.2255143 L53.5366323,51.2255143 L55.9845188,46.8218714 Z M64.2666534,46.2285143 L60.3107832,50.7640071 L57.1592186,46.2292286 L64.2666534,46.2285143 Z M69.1617134,51.2255143 L61.6367812,51.2255143 L65.3992473,46.9121714 L69.1617134,51.2255143 Z M73.638565,46.2277929 L70.4884223,50.7632929 L66.5325542,46.2285143 L73.638565,46.2277929 Z M78.9182855,52.4251357 C79.0546006,52.16285 79.1502288,51.7400429 78.8426417,51.2298143 L75.6025796,45.4832286 C75.5833132,45.4488286 75.5604708,45.4158643 75.5354955,45.38505 C75.1936484,44.9772929 74.8182591,44.9163786 74.6005914,44.9264143 L56.1657908,44.9264143 C56.1001336,44.9264143 56.0359032,44.9364429 55.9738135,44.9557929 C55.7311663,45.0310357 55.5220611,45.1578786 55.3522074,45.3327357 C55.3122421,45.3735857 55.2779863,45.41945 55.2501531,45.4696143 L51.9844012,51.3459071 C51.6625364,51.92565 51.9023292,52.3491714 52.0293623,52.5161429 L64.6484667,68.3477429 C64.6663084,68.3706714 64.6862914,68.3928857 64.7077013,68.41295 C64.9061012,68.6021429 65.1373301,68.6967357 65.3728416,68.6967357 C65.6090662,68.6967357 65.8488591,68.6014214 66.0615325,68.4108 C66.0879381,68.3871571 66.1129169,68.3613571 66.1350406,68.3334071 L78.8476325,52.5340643 C78.8747548,52.5003786 78.8990191,52.4638357 78.9182855,52.4251357 Z M36.0916948,40.0806214 L11.3915926,40.0806214 C10.4088701,40.0806214 9.6124146,40.8803714 9.6124146,41.8671571 C9.6124146,42.8539429 10.4088701,43.6544071 11.3915926,43.6544071 L36.0916948,43.6544071 C37.0744174,43.6544071 37.8708728,42.8539429 37.8708728,41.8671571 C37.8708728,40.8803714 37.0744174,40.0806214 36.0916948,40.0806214 Z"></path>
                    </g>
                </g>
            </g>
        </g>
    </g>
</svg>