<?xml version="1.0" encoding="UTF-8"?>
<svg width="40px" height="35px" viewBox="0 0 40 35" version="1.1" xmlns="http://www.w3.org/2000/svg" xmlns:xlink="http://www.w3.org/1999/xlink">
    <!-- Generator: Sketch 52.3 (67297) - http://www.bohemiancoding.com/sketch -->
    <title>Pay_With_Points</title>
    <desc>Created with Sketch.</desc>
    <g id="FINAL" stroke="none" stroke-width="1" fill="none" fill-rule="evenodd">
        <g id="Shape" fill="#006AC3" fill-rule="nonzero">
            <path d="M35.4977656,29.0524937 C35.3801281,28.9531063 35.2050812,28.9675281 35.1059531,29.0844719 C33.72065,30.7141562 31.7022969,31.7675906 29.5678769,31.973575 C29.4147909,31.9883094 29.3031134,32.12375 29.3178575,32.27675 C29.3316603,32.4203438 29.452435,32.5275688 29.5942278,32.5275688 C29.6030116,32.5275688 29.6121087,32.5272531 29.6212063,32.5266281 C31.8983594,32.3065344 34.0519187,31.1828719 35.5297625,29.4440813 C35.6288906,29.3271375 35.614775,29.1518781 35.4977656,29.0524937 Z M28.7089641,33.3063562 C23.4177713,33.3063562 19.1131675,29.0038969 19.1131675,23.715725 C19.1131675,18.4275531 23.4177713,14.1254094 28.7089641,14.1254094 C34.0004719,14.1254094 38.305075,18.4275531 38.305075,23.715725 C38.305075,29.0038969 34.0004719,33.3063562 28.7089641,33.3063562 Z M1.56819062,22.7090063 L1.56819062,10.7679031 C1.58011125,10.7697844 1.59109094,10.7751156 1.60363906,10.7751156 L34.6429313,10.7751156 L34.6429313,14.1207062 C32.9172625,13.0509687 30.8847937,12.4311375 28.7089641,12.4311375 C22.8229944,12.4311375 17.9769431,16.956825 17.4656106,22.7090063 L1.56819062,22.7090063 Z M1.56819062,6.5475875 L34.6429313,6.5475875 L34.6429313,10.2734813 L1.60363906,10.2734813 C1.59109094,10.2734813 1.58011125,10.2788094 1.56819062,10.2806906 L1.56819062,6.5475875 Z M1.56819062,6.04595313 L1.56819062,1.56729375 L34.6429313,1.56729375 L34.6429313,6.04595313 L1.56819062,6.04595313 Z M36.2111219,15.2920219 L36.2111219,10.5264938 C36.2111219,10.5258656 36.2114344,10.524925 36.2114344,10.5242969 C36.2114344,10.5233562 36.2111219,10.5227312 36.2111219,10.5221031 L36.2111219,1.45129062 C36.2111219,0.651184375 35.5598781,0 34.7593125,0 L1.45180781,0 C0.651243125,0 0,0.651184375 0,1.45129062 L0,22.8250094 C0,23.6251188 0.651243125,24.2763031 1.45180781,24.2763031 L17.4323581,24.2763031 C17.7256684,30.2388594 22.6714769,35 28.7089641,35 C34.9349844,35 40,29.9378781 40,23.715725 C40,20.3695063 38.5337625,17.360325 36.2111219,15.2920219 Z M31.7386875,15.967975 C31.8823625,16.0215875 32.0426625,15.9510469 32.0975625,15.8074531 C32.1524594,15.6641719 32.0806219,15.50365 31.9372594,15.4487844 C29.7284919,14.6054094 27.3227197,14.6731312 25.1628891,15.63815 C23.002745,16.6034844 21.3486,18.3510562 20.5053722,20.5582469 C20.4504744,20.7015281 20.5223119,20.86205 20.6656731,20.9169156 C20.6982981,20.9291437 20.7318641,20.9351 20.7648028,20.9351 C20.8767941,20.9351 20.9821975,20.8673812 21.0245472,20.7563938 C21.8150734,18.6877781 23.3653831,17.0502531 25.3900087,16.1454281 C27.4143203,15.2406062 29.6692025,15.1779 31.7386875,15.967975 Z M31.5401156,22.4111625 L32.8974969,20.4657594 L33.9998437,22.4111625 L31.5401156,22.4111625 Z M29.3169162,28.6841031 L31.2185719,22.983025 L33.9258094,22.983025 L29.3169162,28.6841031 Z M28.7318641,28.6308063 L26.8769509,22.983025 L30.6156375,22.983025 L28.7318641,28.6308063 Z M23.6059916,22.983025 L26.2749588,22.983025 L28.1304997,28.6323719 L23.6059916,22.983025 Z M24.6085797,20.4845687 L25.9540428,22.4111625 L23.5325856,22.4111625 L24.6085797,20.4845687 Z M28.2490784,20.224975 L26.5102344,22.2092531 L25.1249312,20.2252875 L28.2490784,20.224975 Z M30.4007531,22.4111625 L27.0930906,22.4111625 L28.7469219,20.524075 L30.4007531,22.4111625 Z M32.3686,20.2246594 L30.9839219,22.2089406 L29.2450787,20.224975 L32.3686,20.2246594 Z M34.6893563,22.9359969 C34.749275,22.8212469 34.7913094,22.6362687 34.6561063,22.4130437 L33.2319031,19.8989125 C33.2234344,19.8838625 33.2133938,19.8694406 33.2024156,19.8559594 C33.0521531,19.6775656 32.8871469,19.6509156 32.7914687,19.6553062 L24.6882597,19.6553062 C24.6593994,19.6553062 24.6311663,19.6596937 24.6038741,19.6681594 C24.4972159,19.7010781 24.4053016,19.7565719 24.3306406,19.8330719 C24.3130734,19.8509438 24.2980159,19.8710094 24.2857816,19.8929562 L22.8502862,22.4638344 C22.7088072,22.7174719 22.8142106,22.9027625 22.8700494,22.9758125 L28.4169084,29.9021375 C28.4247509,29.9121687 28.4335347,29.9218875 28.4429456,29.9306656 C28.5301544,30.0134375 28.6317934,30.0548219 28.735315,30.0548219 C28.83915,30.0548219 28.9445534,30.0131219 29.0380362,29.929725 C29.0496431,29.9193812 29.0606228,29.9080937 29.0703475,29.8958656 L34.6583,22.9836531 C34.6702219,22.9689156 34.6808875,22.9529281 34.6893563,22.9359969 Z M15.8644813,17.5352719 L5.00729344,17.5352719 C4.5753275,17.5352719 4.22523719,17.8851625 4.22523719,18.3168812 C4.22523719,18.7486 4.5753275,19.0988031 5.00729344,19.0988031 L15.8644813,19.0988031 C16.2964472,19.0988031 16.6465375,18.7486 16.6465375,18.3168812 C16.6465375,17.8851625 16.2964472,17.5352719 15.8644813,17.5352719 Z"></path>
        </g>
    </g>
</svg>