<?xml version="1.0" encoding="UTF-8"?>
<svg width="80px" height="76px" viewBox="0 0 80 76" version="1.1" xmlns="http://www.w3.org/2000/svg" xmlns:xlink="http://www.w3.org/1999/xlink">
    <!-- Generator: Sketch 52.3 (67297) - http://www.bohemiancoding.com/sketch -->
    <title>Pay_Store</title>
    <desc>Created with Sketch.</desc>
    <g id="Page-1" stroke="none" stroke-width="1" fill="none" fill-rule="evenodd">
        <g id="Expanded-Section" transform="translate(-2816.000000, -530.000000)" fill="#006AC3">
            <g id="4.-Pay-with-Points" transform="translate(2511.000000, 72.000000)">
                <g id="Pay-with-Points" transform="translate(0.000000, 240.000000)">
                    <g id="Pay_Store" transform="translate(305.000000, 218.000000)">
                        <path d="M12.9698824,-2.13162821e-14 L-5.22875816e-05,18.1495425 L-5.22875816e-05,35.5555556 L7.32020915,35.5555556 L7.32020915,63.7908497 L-5.22875816e-05,63.7908497 L-5.22875816e-05,75.2941176 L79.9999477,75.2941176 L79.9999477,63.7908497 L73.2025621,63.7908497 L73.2025621,35.5555556 L79.9999477,35.5555556 L79.9999477,18.1495425 L67.3447843,-2.13162821e-14 L12.9698824,-2.13162821e-14 Z M55.3698824,4.70588235 L64.7345882,4.70588235 L74.9615163,18.8235294 L61.3338039,18.8235294 L55.3698824,4.70588235 Z M42.3528889,4.70588235 L52.8287059,4.70588235 L58.8888366,18.8235294 L42.3528889,18.8235294 L42.3528889,4.70588235 Z M29.8383791,4.70588235 L40.2613856,4.70588235 L40.2613856,18.8235294 L23.7787712,18.8235294 L29.8383791,4.70588235 Z M15.5800784,4.70588235 L27.283085,4.70588235 L21.4378562,18.4109804 L21.4378562,18.8235294 L5.3536732,18.8235294 L15.5800784,4.70588235 Z M61.1764183,21.4379085 L75.2940654,21.4379085 L75.2940654,30.8496732 L73.0985098,30.8496732 L61.1764183,30.8496732 L61.1764183,21.4379085 Z M42.3528889,30.8496732 L59.084915,30.8496732 L59.084915,21.4379085 L42.3528889,21.4379085 L42.3528889,30.8496732 Z M23.5293595,30.8496732 L40.2613856,30.8496732 L40.2613856,21.4379085 L23.5293595,21.4379085 L23.5293595,30.8496732 Z M4.70583007,21.4379085 L21.3949804,21.4379085 L21.3458301,30.8496732 L7.21615686,30.8496732 L4.70583007,30.8496732 L4.70583007,21.4379085 Z M12.0260915,35.5555556 L68.4966797,35.5555556 L68.4966797,65.8823529 L63.7907974,65.8823529 L63.7907974,40.2614379 L47.0587712,40.2614379 L47.0587712,65.8823529 L12.0260915,65.8823529 L12.0260915,35.5555556 Z M49.6731503,65.8823529 L61.1764183,65.8823529 L61.1764183,42.3529412 L49.6731503,42.3529412 L49.6731503,65.8823529 Z M4.70583007,68.496732 L7.21615686,68.496732 L47.2161569,68.496732 L63.6867451,68.496732 L73.0985098,68.496732 L75.2940654,68.496732 L75.2940654,70.5882353 L4.70583007,70.5882353 L4.70583007,68.496732 Z"></path>
                        <path d="M18.8235294,56.4705882 L40.2614379,56.4705882 L40.2614379,42.3529412 L18.8235294,42.3529412 L18.8235294,56.4705882 Z M16.7320261,59.0849673 L42.3529412,59.0849673 L42.3529412,40.2614379 L16.7320261,40.2614379 L16.7320261,59.0849673 Z" id="Fill-2"></path>
                    </g>
                </g>
            </g>
        </g>
    </g>
</svg>