<?xml version="1.0" encoding="UTF-8"?>
<svg width="59px" height="79px" viewBox="0 0 59 79" version="1.1" xmlns="http://www.w3.org/2000/svg" xmlns:xlink="http://www.w3.org/1999/xlink">
    <!-- Generator: Sketch 52.3 (67297) - http://www.bohemiancoding.com/sketch -->
    <title>Pay_Bill</title>
    <desc>Created with Sketch.</desc>
    <g id="Page-1" stroke="none" stroke-width="1" fill="none" fill-rule="evenodd">
        <g id="Expanded-Section" transform="translate(-3057.000000, -531.000000)" fill="#006AC3">
            <g id="4.-Pay-with-Points" transform="translate(2511.000000, 72.000000)">
                <g id="Pay-with-Points" transform="translate(0.000000, 240.000000)">
                    <g id="Icons-/-Marketing-/-receipt-/-80x80" transform="translate(535.000000, 218.000000)">
                        <g id="receipt" transform="translate(11.000000, 1.000000)">
                            <path d="M44.76375,47.0975 C44.76375,47.37375 44.609375,47.5975 44.41875,47.5975 L23.331875,47.5975 C23.14125,47.5975 22.986875,47.37375 22.986875,47.0975 C22.986875,46.82125 23.14125,46.5975 23.331875,46.5975 L44.418125,46.5975 C44.60875,46.598125 44.76375,46.821875 44.76375,47.0975 Z M44.418125,53.160625 L23.331875,53.160625 C23.14125,53.160625 22.986875,53.384375 22.986875,53.660625 C22.986875,53.936875 23.14125,54.160625 23.331875,54.160625 L44.418125,54.160625 C44.60875,54.160625 44.763125,53.936875 44.763125,53.660625 C44.763125,53.384375 44.60875,53.160625 44.418125,53.160625 Z M44.418125,40.035625 L23.331875,40.035625 C23.14125,40.035625 22.986875,40.259375 22.986875,40.535625 C22.986875,40.811875 23.14125,41.035625 23.331875,41.035625 L44.418125,41.035625 C44.60875,41.035625 44.763125,40.811875 44.763125,40.535625 C44.763125,40.259375 44.60875,40.035625 44.418125,40.035625 Z M25.8275,25.693125 C25.8275,21.255625 29.4375,17.645625 33.875,17.645625 C38.3125,17.645625 41.9225,21.255625 41.9225,25.693125 C41.9225,30.130625 38.3125,33.74125 33.875,33.74125 C29.4375,33.74125 25.8275,30.130625 25.8275,25.693125 Z M26.8275,25.693125 C26.8275,29.579375 29.98875,32.740625 33.875,32.740625 C37.76125,32.740625 40.9225,29.579375 40.9225,25.693125 C40.9225,21.806875 37.76125,18.645625 33.875,18.645625 C29.98875,18.645625 26.8275,21.8075 26.8275,25.693125 Z M58.3825,66.203125 L58.3825,69.830625 C58.3825,74.39 54.686875,78.085625 50.1275,78.085625 C50.06625,78.085625 50.006875,78.0775 49.945625,78.07625 L49.950625,78.085625 L8.28625,78.085625 C3.726875,78.085625 0.03125,74.389375 0.03125,69.830625 L0.03125,64.0125 L9.63125,64.0125 L9.63125,4.025625 L12.75625,0.724375 L12.75625,0.7375 L12.7675,0.724375 L16.398125,3.726875 L19.91,0.811875 L23.41875,3.725625 L26.93,0.811875 L30.43875,3.725625 L33.95,0.8125 L37.4625,3.72625 L40.975,0.8125 L44.4875,3.72625 L47.99875,0.811875 L51.493125,3.71125 L55.2425,0.48875 L57.416875,2.72125 L58.381875,3.71125 L58.3825,66.203125 Z M43.6675,74.96125 C42.5045885,73.5044031 41.8718068,71.6953219 41.873125,69.83125 L41.873125,67.201875 L3.1575,67.181875 L3.1575,69.83125 C3.1575,72.66 5.45875,74.96125 8.2875,74.96125 L43.6675,74.96125 Z M55.2575,68.70125 L55.2575,4.585 L51.529375,7.80125 L48,4.8725 L44.48875,7.785625 L40.97625,4.871875 L37.46375,7.785625 L33.95125,4.871875 L30.439375,7.78625 L26.930625,4.8725 L23.419375,7.78625 L19.911875,4.8725 L16.40375,7.785 L12.75875,4.77 L12.75875,66.201875 L44.999375,66.201875 L44.999375,69.83 C44.999375,72.65875 47.300625,74.96 50.129375,74.96 C52.958125,74.96 55.259375,72.65875 55.259375,69.83 L55.259375,68.70125 L55.2575,68.70125 Z" id="Shape" fill-rule="nonzero"></path>
                        </g>
                    </g>
                </g>
            </g>
        </g>
    </g>
</svg>