<?xml version="1.0" encoding="UTF-8"?>
<svg width="80px" height="64px" viewBox="0 0 80 64" version="1.1" xmlns="http://www.w3.org/2000/svg" xmlns:xlink="http://www.w3.org/1999/xlink">
    <!-- Generator: Sketch 52.3 (67297) - http://www.bohemiancoding.com/sketch -->
    <title>RBC_Credit_cards</title>
    <desc>Created with Sketch.</desc>
    <g id="FINAL" stroke="none" stroke-width="1" fill="none" fill-rule="evenodd">
        <g id="Icons-/-Marketing-/-credit-cards-/-80x80" transform="translate(0.000000, -8.000000)" fill="#006AC3">
            <g id="Icons-/-Marketing-/-80-/-icon-credit-cards" transform="translate(0.000000, 8.000000)">
                <path d="M76.88,0 L16.25,0 C14.5252553,0.00551039468 13.1299912,1.40524646 13.13,3.13 L13.13,18.75 L3.13,18.75 C1.40134873,18.75 1.13793455e-15,20.1513487 3.22926229e-15,21.88 L3.22926229e-15,60.63 C-0.00266757287,61.4609425 0.326242648,62.2586211 0.913810765,62.8461892 C1.50137888,63.4337574 2.29905748,63.7626676 3.13,63.76 L63.75,63.76 C64.5792067,63.7626577 65.3753624,63.435118 65.9626405,62.8497162 C66.5499186,62.2643144 66.8800043,61.469211 66.88,60.64 L66.88,45 L76.88,45 C78.6008496,44.9945108 79.9945108,43.6008496 80,41.88 L80,3.13 C80.0000088,1.40524646 78.6047447,0.00551039468 76.88,0 Z M63.75,60.63 L3.13,60.63 L3.13,38 L63.75,38 L63.75,60.63 Z M63.75,37.01 L3.13,37.01 L3.13,29.87 L63.75,29.87 L63.75,37.01 Z M63.75,28.88 L3.13,28.88 L3.13,21.88 L63.75,21.88 L63.75,28.88 Z M76.88,41.88 L66.88,41.88 L66.88,21.88 C66.8745108,20.1591504 65.4808496,18.7654892 63.76,18.76 L16.25,18.76 L16.25,3.13 L76.88,3.13 L76.88,41.88 Z" id="Shape" fill-rule="nonzero"></path>
                <path d="M11.56,53.44 L30.94,53.44 C31.8015642,53.4399999 32.4999999,52.7415642 32.4999999,51.88 C32.4999999,51.0184358 31.8015642,50.3200001 30.94,50.32 L11.56,50.32 C10.6956744,50.32 9.995,51.0206744 9.995,51.885 C9.995,52.7493256 10.6956744,53.45 11.56,53.45 L11.56,53.44 Z M51.56,53.44 L59.06,53.44 C59.9215642,53.4399999 60.6199999,52.7415642 60.6199999,51.88 C60.6199999,51.0184358 59.9215642,50.3200001 59.06,50.32 L51.56,50.32 C50.6956744,50.32 49.995,51.0206744 49.995,51.885 C49.995,52.7493256 50.6956744,53.45 51.56,53.45 L51.56,53.44 Z" id="Shape" fill-rule="nonzero"></path>
            </g>
        </g>
    </g>
</svg>