<?xml version="1.0" encoding="UTF-8"?>
<svg width="81px" height="80px" viewBox="0 0 81 80" version="1.1" xmlns="http://www.w3.org/2000/svg" xmlns:xlink="http://www.w3.org/1999/xlink">
    <!-- Generator: Sketch 52.3 (67297) - http://www.bohemiancoding.com/sketch -->
    <title>Shop_More</title>
    <desc>Created with Sketch.</desc>
    <defs>
        <polygon id="path-1" points="5.79293841e-05 0 55.3548384 0 55.3548384 74.1184865 5.79293841e-05 74.1184865"></polygon>
        <polygon id="path-3" points="0.187030403 0.086269697 55.1696115 0.086269697 55.1696115 50.9090273 0.187030403 50.9090273"></polygon>
    </defs>
    <g id="FINAL" stroke="none" stroke-width="1" fill="none" fill-rule="evenodd">
        <g id="Group-10" transform="translate(-11.000000, 0.000000)">
            <g id="Group-7" transform="translate(11.657143, 0.000000)">
                <g id="Group-3">
                    <mask id="mask-2" fill="white">
                        <use xlink:href="#path-1"></use>
                    </mask>
                    <g id="Clip-2"></g>
                    <path d="M8.37016578,33.1038282 L12.7867267,70.3814708 L3.95339271,70.3814708 L8.37016578,33.1038282 Z M30.373838,2.49146458 C36.6753612,2.49146458 40.1247254,7.36252414 41.1782676,18.0623987 L19.5694085,18.0623987 C20.6229507,7.36252414 24.0723149,2.49146458 30.373838,2.49146458 Z M9.61909911,22.5646809 L9.70947547,21.7996276 L16.8171727,21.7996276 C16.7594676,23.2606683 16.7365553,24.7227749 16.7365553,26.1595147 C16.7365553,26.8474019 17.2917546,27.4052577 17.976154,27.4052577 C18.6609776,27.4052577 19.2159648,26.8474019 19.2159648,26.1595147 C19.2159648,24.6270633 19.2463024,23.1743361 19.3074019,21.7996276 L41.4404863,21.7996276 C41.5013737,23.1743361 41.5317113,24.6270633 41.5317113,26.1595147 C41.5317113,26.8474019 42.0869106,27.4052577 42.77131,27.4052577 C43.4561336,27.4052577 44.0111208,26.8474019 44.0111208,26.1595147 C44.0111208,24.7227749 43.9884206,23.2606683 43.9302912,21.7996276 L51.0379884,21.7996276 L51.5560613,26.171452 C51.7321467,26.1642044 51.9044134,26.1595147 52.0694669,26.1595147 C53.0173579,26.1595147 54.1515175,26.2716401 55.3548384,26.6218721 L54.5357231,19.710173 C54.4249802,18.7705367 53.6315352,18.0623987 52.6893723,18.0623987 L43.6935306,18.0623987 C42.8262571,8.52619812 39.8132876,-2.13166144e-05 30.373838,-2.13166144e-05 C20.9346006,-2.13166144e-05 17.921419,8.52619812 17.0543576,18.0623987 L8.05809156,18.0623987 C7.11635297,18.0623987 6.32269583,18.7705367 6.21195297,19.710173 L0.013110936,72.029032 C-0.04968578,72.5596025 0.116004204,73.0912389 0.46902358,73.4909254 C0.821830805,73.8897592 1.32802325,74.1184865 1.85946167,74.1184865 L22.8931792,74.1184865 L23.5345119,70.3814708 L15.2843812,70.3814708 L9.61909911,22.5646809 Z" id="Fill-1" fill="#006AC3" mask="url(#mask-2)"></path>
                </g>
                <g id="Group-6" transform="translate(24.771429, 29.090909)">
                    <mask id="mask-4" fill="white">
                        <use xlink:href="#path-3"></use>
                    </mask>
                    <g id="Clip-5"></g>
                    <path d="M15.4986125,47.1903303 L14.6372554,42.231997 L50.1970434,42.231997 L51.0586143,47.1903303 L15.4986125,47.1903303 Z M8.62464516,22.2215424 L12.963499,47.1903303 L4.28557754,47.1903303 L8.62464516,22.2215424 Z M17.6773393,21.1590273 C18.3674511,21.1590273 18.9267239,20.6041182 18.9267239,19.919603 C18.9267239,18.6044515 18.9812402,16.8497848 19.1886158,14.9612697 L36.155576,14.9612697 C36.3629516,16.8497848 36.4174679,18.6044515 36.4174679,19.919603 C36.4174679,20.6041182 36.9769545,21.1590273 37.6666388,21.1590273 C38.3567506,21.1590273 38.9160234,20.6041182 38.9160234,19.919603 C38.9160234,18.1587848 38.833287,16.506997 38.6761518,14.9612697 L45.4581898,14.9612697 L49.9815438,40.9923606 L14.4217558,40.9923606 L9.89818802,14.9612697 L16.6682538,14.9612697 C16.5109048,16.506997 16.4281684,18.1587848 16.4281684,19.919603 C16.4281684,20.6041182 16.987655,21.1590273 17.6773393,21.1590273 Z M27.671989,2.5653303 C32.3003136,2.5653303 34.505764,6.73839091 35.5400766,11.2423606 L19.8041152,11.2423606 C20.8384278,6.73839091 23.0438783,2.5653303 27.671989,2.5653303 Z M55.0934597,48.5218152 L48.8833082,12.7857545 C48.7285247,11.8942091 47.9488351,11.2423606 47.03681,11.2423606 L38.1072585,11.2423606 C36.5863614,4.05866364 32.9669086,0.086269697 27.671989,0.086269697 C22.3772832,0.086269697 18.7580442,4.05866364 17.2371471,11.2423606 L8.30738184,11.2423606 C7.39557048,11.2423606 6.6158809,11.8942091 6.46109745,12.7857545 L0.21438791,48.7337242 C0.120320618,49.2742091 0.271469653,49.8282697 0.627215047,50.2474212 C0.98338802,50.666997 1.50824075,50.9090273 2.06088609,50.9090273 L53.2833057,50.9090273 L53.2957055,50.9090273 C54.3308733,50.9090273 55.1697825,50.0766636 55.1697825,49.0497848 C55.1697825,48.8663 55.1432726,48.6893909 55.0934597,48.5218152 Z" id="Fill-4" fill="#006AC3" mask="url(#mask-4)"></path>
                </g>
            </g>
        </g>
    </g>
</svg>