<?xml version="1.0" encoding="UTF-8"?>
<svg width="40px" height="40px" viewBox="0 0 40 40" version="1.1" xmlns="http://www.w3.org/2000/svg" xmlns:xlink="http://www.w3.org/1999/xlink">
    <!-- Generator: Sketch 52.3 (67297) - http://www.bohemiancoding.com/sketch -->
    <title>Travel</title>
    <desc>Created with Sketch.</desc>
    <defs>
        <polygon id="path-1" points="9.375e-05 9.375e-05 39.9999632 9.375e-05 39.9999632 40 9.375e-05 40"></polygon>
    </defs>
    <g id="FINAL" stroke="none" stroke-width="1" fill="none" fill-rule="evenodd">
        <g id="Group-3">
            <g>
                <mask id="mask-2" fill="white">
                    <use xlink:href="#path-1"></use>
                </mask>
                <g id="Clip-2"></g>
                <path d="M39.4235312,17.9447813 L39.3913437,17.9119687 C39.3754062,17.8950938 39.3588437,17.8785313 39.3363437,17.8575938 C39.0522812,17.5963438 38.5550937,17.2850938 37.7991562,17.2850938 C36.9432187,17.2850938 35.8872812,17.7197813 34.5847812,18.6147813 C34.6194687,18.1763438 34.6394687,17.7341562 34.6394687,17.2872813 C34.6394687,7.75509375 26.8700938,9.375e-05 17.3197812,9.375e-05 C7.76978125,9.375e-05 9.375e-05,7.75509375 9.375e-05,17.2872813 C9.375e-05,26.8194688 7.76978125,34.5744688 17.3197812,34.5744688 C18.0529062,34.5744688 18.7738437,34.5232188 19.4825937,34.4329063 L20.1075937,35.0566563 C20.1557187,35.5694688 20.3922812,36.0550938 20.7932187,36.4525938 C21.2779062,36.9382188 21.7929062,37.0982188 22.1904062,37.1354063 L24.2769688,39.2188438 C24.6347812,39.5744688 25.1100937,39.7704063 25.6157187,39.7704063 C25.9838437,39.7704063 26.3416562,39.6641563 26.6472812,39.4647813 C27.3960312,38.9807188 27.7035312,38.0269688 27.3804062,37.1975938 L26.3682187,34.5929063 C27.5700937,33.6194688 28.7179062,32.6619688 29.7935312,31.7369688 L35.6922812,39.2375938 C35.7454062,39.3097813 35.8054062,39.3775938 35.8697812,39.4407188 C36.2332187,39.8013438 36.7172812,40.0000938 37.2329062,40.0000938 C37.5463437,40.0000938 37.8579062,39.9235313 38.1291562,39.7807188 C38.9679062,39.3466563 39.3688437,38.3779063 39.0832187,37.4775938 L37.4725937,32.6804063 L38.2716562,31.8825938 C38.9925937,31.1622813 38.9925937,29.9904062 38.2716562,29.2704063 L37.6529062,28.8063438 C37.2238437,28.4079063 36.6135312,28.2385313 36.0457187,28.3447813 L35.4238437,26.4982188 C37.4700937,24.3932188 38.8366562,22.6607188 39.4885312,21.3447813 C40.3769687,19.5529063 39.9435312,18.5066563 39.4235312,17.9447813 Z M30.7622813,21.8560313 L28.9341563,21.2710313 C29.0185313,20.7104063 28.8454063,20.1182188 28.4141563,19.6875938 L28.2597813,19.5332188 C28.3175938,18.9019688 28.3544688,18.2607188 28.3625938,17.6088438 L33.0663438,17.6088438 C33.0497813,18.4150938 32.9635313,19.2029063 32.8279063,19.9747813 C32.1879063,20.5172813 31.5019688,21.1407188 30.7622813,21.8560313 Z M18.9457188,20.3357187 C18.9360312,20.3282188 18.9269688,20.3204063 18.9147812,20.3079062 C18.7985313,20.1922813 18.7713437,20.0185312 18.8482188,19.8716563 C18.9304062,19.7141563 19.1254062,19.6329063 19.2866563,19.6866562 L24.4116563,21.4357187 C24.4307187,21.4491563 24.4500938,21.4632187 24.4738438,21.4710312 L27.2719688,22.3885312 C27.2913437,22.3947813 27.3100938,22.3963438 27.3291563,22.3979063 L30.6891562,23.4729063 L27.3813437,26.9444688 L18.9457188,20.3357187 Z M21.5679063,17.6088438 L27.8622812,17.6088438 C27.8557188,18.1022813 27.8313438,18.5885313 27.7950937,19.0691563 L27.7341562,19.0085313 C27.3385313,18.6138438 26.9110313,18.4625938 26.4632188,18.5594688 C26.0807188,18.6419688 25.7857188,18.8954063 25.5238437,19.1566563 L24.7713437,19.9075938 L21.5438438,18.8057188 C21.5529062,18.4066563 21.5660313,18.0082188 21.5679063,17.6088438 Z M21.0963438,9.46571875 L26.5260313,9.46571875 C27.3610313,11.7329063 27.8447813,14.3372813 27.8647813,17.1094688 L21.5688437,17.1094688 C21.5619687,14.4913438 21.3988437,11.8525938 21.0963438,9.46571875 Z M25.5813437,21.3079063 L26.6304062,20.2613438 C26.6579062,20.2338438 26.6825937,20.2100938 26.7041562,20.1897813 L27.3075937,20.7916563 C27.4188438,20.9029063 27.4188438,21.0841562 27.3075937,21.1954063 L26.7963437,21.7066563 L25.5813437,21.3079063 Z M21.0675938,17.6088438 C21.0657188,17.9572813 21.0610313,18.2994688 21.0547813,18.6388438 L19.8488438,18.2272813 L19.7816563,18.1922813 L19.7054063,18.1810313 C19.5350938,18.1322813 19.3585313,18.1075938 19.1800938,18.1075938 C18.4529063,18.1075938 17.7935313,18.5082188 17.4607187,19.1494688 C17.0650938,19.9022813 17.2050938,20.8116563 17.8050938,21.4091563 C17.8669688,21.4722813 17.9325938,21.5294688 17.9913438,21.5738438 L20.7616563,23.7444688 C20.7107188,24.2619688 20.6557187,24.7691563 20.5932187,25.2522813 L14.0463438,25.2525938 C13.7594688,23.0385313 13.5844688,20.4632188 13.5722813,17.6088438 L21.0675938,17.6088438 Z M13.5713438,17.1094687 C13.5782188,14.2588438 13.7472813,11.6844687 14.0279063,9.46540625 L20.6119688,9.46571875 C20.8922812,11.6844687 21.0613437,14.2588438 21.0685312,17.1094687 L13.5713438,17.1094687 Z M21.2125937,24.0972813 L22.6866562,25.2522813 L21.0779062,25.2522813 C21.1266562,24.8741563 21.1710312,24.4879063 21.2125937,24.0972813 Z M21.0107187,25.7519688 L23.3244687,25.7519688 L25.4775937,27.4388438 C25.4329062,27.5213438 25.3854062,27.6000938 25.3404062,27.6810313 C24.4669687,28.6960313 23.5697812,29.7688438 22.6585312,30.8904063 L20.1847813,29.9322813 C20.5169687,28.7113438 20.7947812,27.2944688 21.0107187,25.7519688 Z M33.0700937,17.1094688 L28.3650937,17.1094688 C28.3457187,14.3482188 27.8738437,11.7469688 27.0538437,9.46571875 L30.9788437,9.46571875 C32.2813437,11.7229063 33.0388437,14.3297813 33.0700937,17.1094688 Z M30.6791562,8.96603125 L26.8644688,8.96603125 C25.7213437,6.03603125 23.9963438,3.67790625 21.9269688,2.24946875 C25.5888437,3.36946875 28.6857187,5.78915625 30.6791562,8.96603125 Z M20.1254063,1.81665625 C22.7425938,2.91728125 24.9560313,5.51384375 26.3369687,8.96603125 L21.0313437,8.96603125 C20.6004062,5.82259375 19.9207187,3.17009375 19.0322813,1.65665625 C19.4010313,1.69634375 19.7647812,1.75165625 20.1254063,1.81665625 Z M17.3197812,1.56196875 C17.6925938,1.56196875 18.0616562,1.57978125 18.4282187,1.60509375 C19.2763437,2.83040625 20.0572812,5.40540625 20.5463437,8.96603125 L14.0932187,8.96603125 C14.5825937,5.40540625 15.3632187,2.83040625 16.2116562,1.60509375 C16.5779062,1.57978125 16.9466562,1.56196875 17.3197812,1.56196875 Z M15.6072812,1.65665625 C14.7185312,3.17009375 14.0391562,5.82259375 13.6085312,8.96603125 L8.30321875,8.96603125 C9.68384375,5.51384375 11.8972812,2.91728125 14.5141562,1.81665625 C14.8747812,1.75165625 15.2388437,1.69634375 15.6072812,1.65665625 Z M13.0716563,17.6088438 C13.0844688,20.2325938 13.2532188,22.8710313 13.5619688,25.2525938 L8.16821875,25.2525938 C7.31478125,22.9910313 6.81321875,20.3860313 6.77728125,17.6088438 L13.0716563,17.6088438 Z M6.77478125,17.1094687 C6.79478125,14.3372813 7.27884375,11.7325937 8.11384375,9.46540625 L13.5432187,9.46540625 C13.2407188,11.8525937 13.0779062,14.4910312 13.0707187,17.1094687 L6.77478125,17.1094687 Z M12.7129062,2.24946875 C10.6435313,3.67790625 8.91821875,6.03603125 7.77540625,8.96603125 L3.96103125,8.96603125 C5.95446875,5.78884375 9.05103125,3.36946875 12.7129062,2.24946875 Z M3.66134375,9.46540625 L7.58603125,9.46540625 C6.76571875,11.7469688 6.29384375,14.3482188 6.27446875,17.1094687 L1.56978125,17.1094687 C1.60071875,14.3297813 2.35853125,11.7225937 3.66134375,9.46540625 Z M1.57290625,17.6088437 L6.27665625,17.6088437 C6.31228125,20.3747812 6.80071875,22.9766563 7.63884375,25.2525938 L3.74384375,25.2529062 C2.41321875,23.0016562 1.62978125,20.3932188 1.57290625,17.6088437 Z M4.05321875,25.7525938 L7.83071875,25.7525938 C8.97321875,28.6160313 10.6769687,30.9197813 12.7129062,32.3247813 C9.10634375,31.2219688 6.04946875,28.8582188 4.05321875,25.7525938 Z M14.5141563,32.7579062 C11.9341563,31.6725938 9.74790625,29.1316563 8.36353125,25.7525938 L13.6291563,25.7525938 C14.0607188,28.8322813 14.7322813,31.4275938 15.6075938,32.9179063 C15.2388438,32.8779063 14.8747813,32.8229063 14.5141563,32.7579062 Z M17.3197813,33.0122813 C16.9466563,33.0122813 16.5782187,32.9947813 16.2116563,32.9691563 C15.3747813,31.7607188 14.6041563,29.2379063 14.1138438,25.7525938 L20.5260313,25.7519688 C20.3082188,27.2997813 20.0344688,28.6516563 19.7247812,29.7885313 C19.6057188,29.7654063 19.4850938,29.7522813 19.3641563,29.7522813 C18.7222813,29.7522813 18.1291563,30.0722813 17.7769688,30.6097813 C17.2935313,31.3513438 17.3960313,32.3460313 18.0229063,32.9760313 L18.0379063,32.9913438 C17.8000938,33.0035313 17.5607187,33.0122813 17.3197813,33.0122813 Z M19.1316562,31.8735313 C19.0244688,31.7657188 19.0060312,31.5888438 19.0879063,31.4629063 C19.1716562,31.3347813 19.3454063,31.2844688 19.4819688,31.3357188 L22.6413437,32.5594688 L21.3772812,34.1150938 L19.1316562,31.8735313 Z M25.7938437,38.1554063 C25.6657187,38.2394688 25.4888437,38.2188438 25.3829062,38.1138438 L23.0563437,35.7904063 L24.6747813,34.5550938 L25.9216562,37.7632188 C25.9766562,37.9041563 25.9229062,38.0719688 25.7938437,38.1554063 Z M37.5916562,37.9519688 L37.5947812,37.9622813 C37.6429062,38.1325938 37.5660312,38.3125938 37.4044687,38.3960313 C37.2682187,38.4682188 37.0816562,38.4407188 36.9719687,38.3316563 L30.3238437,29.8816563 L33.7950937,26.5644688 L34.9391562,29.9607188 C34.9397812,29.9841563 34.9400937,30.0082188 34.9482187,30.0313438 L35.6929062,32.2466563 L35.6804062,32.2594688 L37.5916562,37.9519688 Z M36.1910313,29.9579063 C36.2635312,29.8854063 36.3485313,29.8744688 36.3932187,29.8744688 C36.4372812,29.8744688 36.5225937,29.8854063 36.5950937,29.9582188 L37.1919687,30.4057188 C37.2754062,30.5172813 37.2666562,30.6769688 37.1650937,30.7782188 L36.0885313,31.8522813 L35.6372813,30.5104063 L36.1910313,29.9579063 Z M38.0860313,20.6522813 C37.4729063,21.8900938 36.0888438,23.6035313 33.9722813,25.7450938 L33.9322813,25.7857188 C33.8938438,25.7963438 33.8572813,25.8129063 33.8263438,25.8422813 L30.0129063,29.4866563 L30.0075938,29.4800938 L29.3863438,30.0216563 C28.0416563,31.1935313 26.5679063,32.4250938 25.0063438,33.6829063 C24.9947813,33.6888438 24.9816563,33.6919688 24.9707188,33.7000938 L22.5750938,35.5285313 C22.5594688,35.5404063 22.5497813,35.5566563 22.5375938,35.5716563 L22.4500938,35.5788438 C22.2554063,35.5941563 22.0732188,35.5225938 21.8991563,35.3475938 C21.7260312,35.1760313 21.6479062,34.9941563 21.6666563,34.8069688 L21.6950938,34.5179063 L23.1313438,32.7494688 L23.1579062,32.7597813 L23.5172813,32.3144688 C24.7916563,30.7354063 26.0438438,29.2425938 27.2385313,27.8782188 L27.7816563,27.2582188 L27.7766563,27.2544688 L31.6447813,23.1947813 C31.6560313,23.1829063 31.6610313,23.1685313 31.6697813,23.1554063 C35.5063438,19.4135313 37.1560313,18.8469688 37.7991563,18.8469688 C38.0007188,18.8469688 38.1610313,18.9007188 38.2694688,19.0007188 L38.2810312,19.0125938 C38.6388438,19.4154063 38.2644688,20.2922813 38.0860313,20.6522813 Z" id="Fill-1" fill="#006AC3" mask="url(#mask-2)"></path>
            </g>
        </g>
    </g>
</svg>